<svg width="49" height="48" viewBox="0 0 49 48" fill="none" xmlns="http://www.w3.org/2000/svg">
<path d="M36.4271 18.4688C34.2961 17.3115 31.8631 16.8308 29.4521 17.0907C29.3603 17.1004 29.2713 17.1281 29.1901 17.1722C29.109 17.2164 29.0374 17.276 28.9793 17.3479C28.9212 17.4197 28.8779 17.5022 28.8517 17.5908C28.8255 17.6794 28.8171 17.7722 28.8268 17.8641C28.8365 17.9559 28.8643 18.045 28.9084 18.1261C28.9525 18.2072 29.0122 18.2789 29.084 18.3369C29.1558 18.395 29.2384 18.4383 29.327 18.4645C29.4155 18.4907 29.5084 18.4991 29.6003 18.4894C37.9318 17.5735 43.9778 26.4132 39.819 33.7707C37.5521 37.9613 32.2656 40.1128 27.7084 38.7985C27.5951 38.7667 27.4757 38.7639 27.361 38.7903C27.2464 38.8166 27.1402 38.8714 27.0521 38.9494L23.6771 41.1244L23.7559 37.1869C23.7764 37.0688 23.7664 36.9473 23.7269 36.8341C23.6874 36.7209 23.6196 36.6197 23.5299 36.54C22.1248 35.293 21.0907 33.6828 20.5412 31.8863C20.4838 31.7115 20.3601 31.5661 20.1967 31.4814C20.0334 31.3967 19.8433 31.3795 19.6673 31.4334C19.4914 31.4872 19.3436 31.6079 19.2556 31.7695C19.1676 31.9312 19.1465 32.1208 19.1968 32.2978C19.7883 34.2305 20.8737 35.9755 22.3459 37.3603L22.2446 42.4182C22.2422 42.5456 22.2744 42.6713 22.3379 42.7819C22.4014 42.8924 22.4937 42.9836 22.605 43.0457C22.7163 43.1079 22.8425 43.1385 22.9699 43.1345C23.0973 43.1305 23.2212 43.0919 23.3284 43.0228L27.6503 40.2385C32.7381 41.5585 38.5159 39.0891 41.0378 34.4625C44.2862 28.9688 42.1018 21.391 36.4271 18.4688Z" fill="#2563EB"/>
<path d="M26.2712 30.5672C26.7934 30.7369 27.3194 30.2063 27.145 29.685L25.6459 24.8531C32.3781 12.6291 16.9272 1.18689 6.88374 10.6031C-0.236571 17.6147 4.18187 29.58 14.0312 30.6216C16.5691 30.8902 19.1271 30.3544 21.3437 29.0897L26.2712 30.5672ZM20.8947 27.721C14.0144 31.9688 4.7753 27.1069 4.78749 18.9244C4.68062 13.2375 9.77687 8.45064 15.3259 8.57064C20.4212 8.45252 25.3403 12.5897 25.8025 17.8022C26.0542 20.107 25.5179 22.4291 24.2809 24.39C24.2168 24.4914 24.1797 24.6075 24.1729 24.7272C24.1662 24.847 24.1902 24.9665 24.2425 25.0744L25.4106 28.8403L21.5669 27.6853C21.4607 27.6348 21.3436 27.6116 21.2263 27.6179C21.1089 27.6241 20.9949 27.6595 20.8947 27.721Z" fill="#2563EB"/>
<path d="M19.764 14.25H11.0959C10.1677 14.2809 10.1584 15.6234 11.0959 15.6562H19.764C20.6921 15.6225 20.6968 14.28 19.764 14.25ZM19.764 18.3094H11.0959C10.1677 18.3403 10.1584 19.6828 11.0959 19.7156H19.764C20.6921 19.6875 20.6968 18.3422 19.764 18.3094ZM19.764 22.3716H11.0959C10.1677 22.4025 10.1584 23.745 11.0959 23.7778H19.764C20.6921 23.7469 20.6968 22.4062 19.764 22.3716ZM26.5505 32.5772C26.5505 32.8258 26.6493 33.0643 26.8251 33.2401C27.0009 33.4159 27.2394 33.5147 27.488 33.5147C28.7255 33.4631 28.7255 31.6997 27.488 31.6481C27.2409 31.6481 27.0037 31.7457 26.8281 31.9197C26.6525 32.0937 26.5528 32.33 26.5505 32.5772ZM32.1146 32.5772C32.1134 32.3302 32.0147 32.0936 31.84 31.919C31.6654 31.7443 31.4288 31.6456 31.1818 31.6444C29.9434 31.6959 29.9443 33.4594 31.1818 33.5109C31.429 33.5097 31.6657 33.4109 31.8404 33.236C32.0151 33.0612 32.1136 32.8244 32.1146 32.5772ZM35.8177 32.5772C35.8165 32.3302 35.7178 32.0936 35.5432 31.919C35.3685 31.7443 35.1319 31.6456 34.8849 31.6444C33.6474 31.6959 33.6474 33.4594 34.8849 33.5109C35.1321 33.5097 35.3688 33.4109 35.5435 33.236C35.7182 33.0612 35.8167 32.8244 35.8177 32.5772Z" fill="#2563EB"/>
</svg>
