<svg width="49" height="48" viewBox="0 0 49 48" fill="none" xmlns="http://www.w3.org/2000/svg">
<path d="M36.7604 18.4688C34.6294 17.3115 32.1964 16.8308 29.7854 17.0907C29.6935 17.1004 29.6045 17.1281 29.5234 17.1722C29.4422 17.2164 29.3706 17.276 29.3125 17.3479C29.2545 17.4197 29.2111 17.5022 29.185 17.5908C29.1588 17.6794 29.1503 17.7722 29.1601 17.8641C29.1698 17.9559 29.1975 18.045 29.2416 18.1261C29.2858 18.2072 29.3455 18.2789 29.4173 18.3369C29.4891 18.395 29.5717 18.4383 29.6602 18.4645C29.7488 18.4907 29.8417 18.4991 29.9335 18.4894C38.2651 17.5735 44.311 26.4132 40.1523 33.7707C37.8854 37.9613 32.5988 40.1128 28.0416 38.7985C27.9283 38.7667 27.8089 38.7639 27.6943 38.7903C27.5796 38.8166 27.4734 38.8714 27.3854 38.9494L24.0104 41.1244L24.0891 37.1869C24.1097 37.0688 24.0997 36.9473 24.0602 36.8341C24.0206 36.7209 23.9528 36.6197 23.8632 36.54C22.4581 35.293 21.424 33.6828 20.8744 31.8863C20.817 31.7115 20.6934 31.5661 20.53 31.4814C20.3666 31.3967 20.1766 31.3795 20.0006 31.4334C19.8246 31.4872 19.6768 31.6079 19.5888 31.7695C19.5009 31.9312 19.4798 32.1208 19.5301 32.2978C20.1215 34.2305 21.2069 35.9755 22.6791 37.3603L22.5779 42.4182C22.5754 42.5456 22.6077 42.6713 22.6711 42.7819C22.7346 42.8924 22.827 42.9836 22.9383 43.0457C23.0496 43.1079 23.1757 43.1385 23.3031 43.1345C23.4305 43.1305 23.5545 43.0919 23.6616 43.0228L27.9835 40.2385C33.0713 41.5585 38.8491 39.0891 41.371 34.4625C44.6194 28.9688 42.4351 21.391 36.7604 18.4688Z" fill="#2563EB"/>
<path d="M26.6045 30.5672C27.1267 30.7369 27.6526 30.2063 27.4782 29.685L25.9792 24.8531C32.7114 12.6291 17.2604 1.18689 7.21699 10.6031C0.0966814 17.6147 4.51512 29.58 14.3645 30.6216C16.9023 30.8902 19.4604 30.3544 21.677 29.0897L26.6045 30.5672ZM21.2279 27.721C14.3476 31.9688 5.10856 27.1069 5.12074 18.9244C5.01387 13.2375 10.1101 8.45064 15.6592 8.57064C20.7545 8.45252 25.6736 12.5897 26.1357 17.8022C26.3875 20.107 25.8511 22.4291 24.6142 24.39C24.5501 24.4914 24.5129 24.6075 24.5062 24.7272C24.4995 24.847 24.5234 24.9665 24.5757 25.0744L25.7439 28.8403L21.9001 27.6853C21.794 27.6348 21.6769 27.6116 21.5595 27.6179C21.4421 27.6241 21.3281 27.6595 21.2279 27.721Z" fill="#2563EB"/>
<path d="M20.0972 14.25H11.4291C10.501 14.2809 10.4916 15.6234 11.4291 15.6562H20.0972C21.0254 15.6225 21.03 14.28 20.0972 14.25ZM20.0972 18.3094H11.4291C10.501 18.3403 10.4916 19.6828 11.4291 19.7156H20.0972C21.0254 19.6875 21.03 18.3422 20.0972 18.3094ZM20.0972 22.3716H11.4291C10.501 22.4025 10.4916 23.745 11.4291 23.7778H20.0972C21.0254 23.7469 21.03 22.4062 20.0972 22.3716ZM26.8838 32.5772C26.8838 32.8258 26.9826 33.0643 27.1584 33.2401C27.3342 33.4159 27.5727 33.5147 27.8213 33.5147C29.0588 33.4631 29.0588 31.6997 27.8213 31.6481C27.5741 31.6481 27.3369 31.7457 27.1613 31.9197C26.9858 32.0937 26.886 32.33 26.8838 32.5772ZM32.4479 32.5772C32.4466 32.3302 32.3479 32.0936 32.1733 31.919C31.9986 31.7443 31.7621 31.6456 31.515 31.6444C30.2766 31.6959 30.2775 33.4594 31.515 33.5109C31.7622 33.5097 31.9989 33.4109 32.1736 33.236C32.3483 33.0612 32.4469 32.8244 32.4479 32.5772ZM36.151 32.5772C36.1497 32.3302 36.0511 32.0936 35.8764 31.919C35.7017 31.7443 35.4652 31.6456 35.2182 31.6444C33.9807 31.6959 33.9807 33.4594 35.2182 33.5109C35.4653 33.5097 35.702 33.4109 35.8767 33.236C36.0514 33.0612 36.15 32.8244 36.151 32.5772Z" fill="#2563EB"/>
</svg>
