<svg width="48" height="48" viewBox="0 0 48 48" fill="none" xmlns="http://www.w3.org/2000/svg">
<path d="M36.0938 18.4688C33.9627 17.3115 31.5298 16.8308 29.1188 17.0907C29.0269 17.1004 28.9379 17.1281 28.8568 17.1722C28.7756 17.2164 28.704 17.276 28.6459 17.3479C28.5878 17.4197 28.5445 17.5022 28.5183 17.5908C28.4922 17.6794 28.4837 17.7722 28.4934 17.8641C28.5032 17.9559 28.5309 18.045 28.575 18.1261C28.6192 18.2072 28.6788 18.2789 28.7507 18.3369C28.8225 18.395 28.905 18.4383 28.9936 18.4645C29.0822 18.4907 29.175 18.4991 29.2669 18.4894C37.5984 17.5735 43.6444 26.4132 39.4856 33.7707C37.2188 37.9613 31.9322 40.1128 27.375 38.7985C27.2617 38.7667 27.1423 38.7639 27.0276 38.7903C26.913 38.8166 26.8068 38.8714 26.7188 38.9494L23.3438 41.1244L23.4225 37.1869C23.443 37.0688 23.4331 36.9473 23.3935 36.8341C23.354 36.7209 23.2862 36.6197 23.1966 36.54C21.7915 35.293 20.7573 33.6828 20.2078 31.8863C20.1504 31.7115 20.0267 31.5661 19.8634 31.4814C19.7 31.3967 19.5099 31.3795 19.334 31.4334C19.158 31.4872 19.0102 31.6079 18.9222 31.7695C18.8343 31.9312 18.8131 32.1208 18.8634 32.2978C19.4549 34.2305 20.5403 35.9755 22.0125 37.3603L21.9113 42.4182C21.9088 42.5456 21.941 42.6713 22.0045 42.7819C22.068 42.8924 22.1603 42.9836 22.2717 43.0457C22.383 43.1079 22.5091 43.1385 22.6365 43.1345C22.7639 43.1305 22.8878 43.0919 22.995 43.0228L27.3169 40.2385C32.4047 41.5585 38.1825 39.0891 40.7044 34.4625C43.9528 28.9688 41.7684 21.391 36.0938 18.4688Z" fill="#2563EB"/>
<path d="M25.9377 30.5672C26.4599 30.7369 26.9859 30.2063 26.8115 29.685L25.3124 24.8531C32.0446 12.6291 16.5937 1.18689 6.55025 10.6031C-0.570067 17.6147 3.84837 29.58 13.6977 30.6216C16.2356 30.8902 18.7936 30.3544 21.0102 29.0897L25.9377 30.5672ZM20.5612 27.721C13.6809 31.9688 4.44181 27.1069 4.45399 18.9244C4.34712 13.2375 9.44337 8.45064 14.9924 8.57064C20.0877 8.45252 25.0068 12.5897 25.469 17.8022C25.7207 20.107 25.1844 22.4291 23.9474 24.39C23.8833 24.4914 23.8462 24.6075 23.8394 24.7272C23.8327 24.847 23.8567 24.9665 23.909 25.0744L25.0771 28.8403L21.2334 27.6853C21.1272 27.6348 21.0101 27.6116 20.8928 27.6179C20.7754 27.6241 20.6614 27.6595 20.5612 27.721Z" fill="#2563EB"/>
<path d="M19.4307 14.25H10.7626C9.83448 14.2809 9.8251 15.6234 10.7626 15.6562H19.4307C20.3589 15.6225 20.3635 14.28 19.4307 14.25ZM19.4307 18.3094H10.7626C9.83448 18.3403 9.8251 19.6828 10.7626 19.7156H19.4307C20.3589 19.6875 20.3635 18.3422 19.4307 18.3094ZM19.4307 22.3716H10.7626C9.83448 22.4025 9.8251 23.745 10.7626 23.7778H19.4307C20.3589 23.7469 20.3635 22.4062 19.4307 22.3716ZM26.2173 32.5772C26.2173 32.8258 26.3161 33.0643 26.4919 33.2401C26.6677 33.4159 26.9061 33.5147 27.1548 33.5147C28.3923 33.4631 28.3923 31.6997 27.1548 31.6481C26.9076 31.6481 26.6704 31.7457 26.4948 31.9197C26.3193 32.0937 26.2195 32.33 26.2173 32.5772ZM31.7814 32.5772C31.7801 32.3302 31.6814 32.0936 31.5068 31.919C31.3321 31.7443 31.0956 31.6456 30.8485 31.6444C29.6101 31.6959 29.611 33.4594 30.8485 33.5109C31.0957 33.5097 31.3324 33.4109 31.5071 33.236C31.6818 33.0612 31.7804 32.8244 31.7814 32.5772ZM35.4845 32.5772C35.4832 32.3302 35.3846 32.0936 35.2099 31.919C35.0352 31.7443 34.7987 31.6456 34.5517 31.6444C33.3142 31.6959 33.3142 33.4594 34.5517 33.5109C34.7988 33.5097 35.0355 33.4109 35.2102 33.236C35.3849 33.0612 35.4835 32.8244 35.4845 32.5772Z" fill="#2563EB"/>
</svg>
