<svg width="49" height="48" viewBox="0 0 49 48" fill="none" xmlns="http://www.w3.org/2000/svg">
<path d="M30.6418 26.8107C29.9983 26.5557 29.8053 26.4282 25.4297 24.4521C25.108 24.3246 24.7219 24.5796 24.7219 24.8983L25.108 30.4441C25.108 30.7628 25.108 31.1452 24.9793 31.464L20.4751 39.2407V39.3045C20.4107 39.4957 20.282 39.6232 20.1533 39.6869C20.0246 39.6232 19.896 39.4957 19.8316 39.3045V39.2407L15.3274 31.464C15.1987 31.1452 15.1343 30.8265 15.1987 30.4441L15.5847 24.8983C15.5847 24.5159 15.1987 24.2609 14.8769 24.4521C10.437 26.4919 10.3727 26.5557 9.72923 26.8107C8.50665 27.2569 5.61107 28.6592 4.90326 31.464C4.64587 32.4839 2.32941 41.153 3.87372 43.3841C4.00241 43.894 4.77457 44.2765 9.27881 44.5952C14.9413 44.9777 35.7251 45.3601 36.4973 43.3841C38.0416 41.153 35.7251 32.4839 35.4678 31.464C34.76 28.6592 31.8644 27.3206 30.6418 26.8107ZM35.6608 42.9379C35.6608 43.0016 35.5965 43.0016 35.5965 43.0653C33.473 44.3402 6.96234 44.3402 4.83891 43.0653C4.83891 43.0016 4.77457 43.0016 4.77457 42.9379C3.61633 41.663 4.83891 35.4161 5.86845 31.7189C6.44757 29.2329 9.27881 28.0218 10.1153 27.7031C10.7588 27.4481 10.7588 27.4481 14.6196 25.6633L14.2978 30.3803C14.2335 30.8903 14.3622 31.4002 14.4909 31.8464C14.4909 31.9102 18.9951 39.6869 18.9951 39.6869C19.2525 40.3881 19.9603 40.6431 20.089 40.6431C20.2177 40.7068 20.282 40.7068 20.4107 40.6431C20.4751 40.6431 21.1829 40.3881 21.5046 39.6869C21.5046 39.6232 26.0089 31.8464 26.0089 31.8464C26.2019 31.4002 26.2662 30.8903 26.2019 30.3803L25.8802 25.6633C29.5479 27.3843 29.7409 27.4481 30.3844 27.7031C31.2209 28.0218 33.9878 29.2329 34.6313 31.7189C35.4678 35.4161 36.6903 41.663 35.6608 42.9379Z" fill="#475569"/>
<path d="M22.6292 26.1349H17.6095C17.2234 26.1349 16.966 26.582 17.2234 26.9014L18.7035 29.1371L17.6739 30.6701C17.6095 30.7979 17.5452 30.9895 17.6095 31.1173L19.6689 36.0997C19.8619 36.4829 20.3768 36.4829 20.5698 36.0997L22.6292 31.1173C22.6935 30.9895 22.6935 30.7979 22.5648 30.6701L21.5995 29.0732L23.0797 26.8375C23.2727 26.582 23.0153 26.1349 22.6292 26.1349ZM20.6342 28.8177C20.5055 29.0093 20.5055 29.201 20.6342 29.3287L21.6639 30.9895L20.1193 34.6305L18.5748 30.9895L19.6689 29.3926C19.7976 29.201 19.7976 29.0093 19.6689 28.8816L18.5105 27.1569H21.7282L20.6342 28.8177ZM11.4958 17.0005C11.6245 17.5754 12.1394 17.9586 12.7186 17.9586H12.7829C13.0403 19.1723 13.2978 20.0027 13.2978 20.0666C13.2978 20.1304 13.2978 20.1304 13.3621 20.1943C14.8423 22.8771 17.0947 25.3045 20.1837 25.3045C24.045 25.3045 26.4261 21.7912 27.3914 18.0225H27.6488C28.228 18.0225 28.7429 17.5754 28.8716 17.0644L29.5795 13.2317C29.7082 12.5291 29.1933 11.9542 28.5498 11.9542H28.228C29.0003 6.26917 24.3667 4.41674 24.3667 4.41674C17.2877 0.775763 13.5552 5.82203 13.4908 5.82203C11.882 8.05772 11.882 10.6767 12.0107 11.8265H11.7532C11.0453 11.8265 10.5949 12.4013 10.7236 13.104L11.4958 17.0005ZM11.6889 12.8485H12.5899C12.9116 12.8485 13.1047 12.593 13.0403 12.2736C13.0403 12.2097 12.3968 9.01587 14.2631 6.39692C14.2631 6.33305 17.5452 1.98942 23.9163 5.18326C23.9806 5.18326 28.1637 6.84406 27.134 12.2097C27.0696 12.5291 27.3271 12.7846 27.5845 12.7846H28.4854V12.9124L27.7775 16.745C27.7775 16.8088 27.6488 16.9366 27.5201 16.9366H26.8766C26.6835 16.9366 26.4261 17.0644 26.4261 17.3199C24.6242 25.049 18.1244 26.9653 14.07 19.6833C14.0057 19.4917 13.7482 18.5335 13.4908 17.3199C13.4265 17.0644 13.2334 16.9366 13.0403 16.9366H12.5899C12.4611 16.9366 12.3324 16.8088 12.3324 16.745L11.6245 12.9124C11.6889 12.9124 11.6889 12.8485 11.6889 12.8485ZM37.302 3.84185C32.9903 3.84185 29.4508 6.4608 29.4508 9.71852C29.4508 11.6987 30.7379 13.4873 32.9259 14.637V18.278C32.9259 18.7252 33.5051 18.9168 33.7625 18.5974L36.3367 15.5952C40.9702 16.0423 45.1533 13.2956 45.1533 9.71852C45.1533 6.52468 41.6138 3.84185 37.302 3.84185ZM36.208 14.637C36.0793 14.637 35.8862 14.7009 35.7575 14.8287L33.8912 17.0005V14.3815C33.8912 14.1899 33.7625 13.9983 33.6338 13.9344C31.6388 13.0401 30.4161 11.4432 30.4161 9.7824C30.4161 7.03569 33.5051 4.86388 37.302 4.86388C41.0989 4.86388 44.188 7.03569 44.188 9.7824C44.188 12.7846 40.391 15.1481 36.208 14.637Z" fill="#475569"/>
<path d="M34.6236 8.90322H33.2785C33.0223 8.90322 32.7661 9.12097 32.7661 9.48387C32.7661 9.84677 32.9583 10.0645 33.2785 10.0645H34.6236C34.8798 10.0645 35.136 9.84677 35.136 9.48387C35.136 9.12097 34.8798 8.90322 34.6236 8.90322ZM37.8903 8.90322H36.5452C36.289 8.90322 36.0328 9.12097 36.0328 9.48387C36.0328 9.84677 36.2249 10.0645 36.5452 10.0645H37.8903C38.1465 10.0645 38.4027 9.84677 38.4027 9.48387C38.4027 9.12097 38.1465 8.90322 37.8903 8.90322ZM41.1569 8.90322H39.8118C39.5556 8.90322 39.2994 9.12097 39.2994 9.48387C39.2994 9.84677 39.4916 10.0645 39.8118 10.0645H41.1569C41.4131 10.0645 41.6693 9.84677 41.6693 9.48387C41.6693 9.12097 41.4131 8.90322 41.1569 8.90322Z" fill="#475569"/>
</svg>
