<svg width="54" height="54" viewBox="0 0 54 54" fill="none" xmlns="http://www.w3.org/2000/svg">
<path d="M7.93721 48.1456L3.69568 0.570312H50.3044L46.0587 48.1384L26.9718 53.43L7.93721 48.1456Z" fill="#1572B6"/>
<path d="M27.0004 49.3854L42.4237 45.1093L46.0522 4.45996H27.0004V49.3854Z" fill="#33A9DC"/>
<path d="M27.0004 21.6967H34.7215L35.2548 15.7217H27.0004V9.88672H41.6318L41.4918 11.4523L40.0574 27.5316H27.0004V21.6967Z" fill="white"/>
<path d="M27.035 36.8504L27.0093 36.858L20.5112 35.1034L20.0956 30.4497H14.2391L15.0563 39.6116L27.0084 42.9288L27.035 42.9212V36.8504Z" fill="#EBEBEB"/>
<path d="M34.2255 27.2847L33.5226 35.0986L27.0148 36.8553V42.9261L38.9766 39.611L39.0644 38.6251L40.0794 27.2847H34.2255Z" fill="white"/>
<path d="M27.0202 9.88672V15.7217H12.9262L12.8094 14.4105L12.5436 11.4523L12.4039 9.88672H27.0202ZM27.0004 21.6975V27.5325H20.5841L20.4672 26.2213L20.201 23.2631L20.0618 21.6975H27.0004Z" fill="#EBEBEB"/>
</svg>
