<svg width="162" height="57" viewBox="0 0 162 57" fill="none" xmlns="http://www.w3.org/2000/svg">
<path d="M157.863 56.2411C158.401 56.3653 158.938 56.0298 159.063 55.4916L161.087 46.7223C161.211 46.1842 160.876 45.6472 160.338 45.523C159.8 45.3987 159.263 45.7343 159.138 46.2724L157.339 54.0674L149.544 52.2678C149.006 52.1435 148.469 52.479 148.345 53.0172C148.22 53.5553 148.556 54.0923 149.094 54.2165L157.863 56.2411ZM0.470081 18.152C0.00171665 18.4446 -0.140714 19.0616 0.151952 19.5299C0.444618 19.9983 1.06156 20.1407 1.52992 19.848L0.470081 18.152ZM11.2117 14.4307C11.7062 14.1847 11.9078 13.5845 11.6618 13.09C11.4159 12.5955 10.8157 12.394 10.3212 12.6399L11.2117 14.4307ZM31.3986 4.63154C30.8655 4.77582 30.5503 5.32496 30.6946 5.85806C30.8389 6.39117 31.388 6.70636 31.9211 6.56207L31.3986 4.63154ZM53.7708 2.91363C54.3218 2.87679 54.7387 2.4002 54.7018 1.84914C54.665 1.29809 54.1884 0.881243 53.6373 0.918092L53.7708 2.91363ZM76.1722 1.62547C75.6246 1.55427 75.1229 1.94053 75.0517 2.48821C74.9805 3.03588 75.3667 3.53758 75.9144 3.60878L76.1722 1.62547ZM97.5027 8.59283C98.0262 8.76893 98.5933 8.48733 98.7694 7.96387C98.9455 7.44041 98.6639 6.87331 98.1404 6.69722L97.5027 8.59283ZM118.705 15.9401C118.226 15.6654 117.615 15.8311 117.34 16.3103C117.065 16.7894 117.231 17.4005 117.71 17.6752L118.705 15.9401ZM135.749 30.5326C136.165 30.896 136.797 30.8534 137.16 30.4375C137.523 30.0216 137.481 29.3899 137.065 29.0265L135.749 30.5326ZM152.499 45.4641C152.162 45.0263 151.534 44.9443 151.096 45.281C150.658 45.6176 150.576 46.2455 150.913 46.6833L152.499 45.4641ZM1.52992 19.848C4.70101 17.8665 7.9321 16.0616 11.2117 14.4307L10.3212 12.6399C6.98371 14.2996 3.69611 16.1361 0.470081 18.152L1.52992 19.848ZM31.9211 6.56207C39.1285 4.61134 46.4472 3.40336 53.7708 2.91363L53.6373 0.918092C46.1838 1.41651 38.7347 2.64597 31.3986 4.63154L31.9211 6.56207ZM75.9144 3.60878C83.2541 4.56298 90.4875 6.23293 97.5027 8.59283L98.1404 6.69722C91.0017 4.29578 83.6412 2.59646 76.1722 1.62547L75.9144 3.60878ZM117.71 17.6752C124.078 21.3258 130.126 25.6198 135.749 30.5326L137.065 29.0265C131.342 24.026 125.185 19.6555 118.705 15.9401L117.71 17.6752ZM150.913 46.6833C153.146 49.5869 155.259 52.6255 157.24 55.7966L158.936 54.7368C156.92 51.5107 154.771 48.4189 152.499 45.4641L150.913 46.6833Z" fill="#1E293B"/>
</svg>
