<svg width="49" height="48" viewBox="0 0 49 48" fill="none" xmlns="http://www.w3.org/2000/svg">
<path d="M44.556 31.8664H41.6893V11.1915C41.6893 9.50295 40.3204 8.12903 38.6374 8.12903H9.86263C8.17963 8.12903 6.81076 9.50295 6.81076 11.1915V31.8664H3.94404C3.78564 31.8664 3.63373 31.9297 3.52173 32.0423C3.40972 32.1549 3.3468 32.3077 3.3468 32.4669C3.3468 36.5491 6.65011 39.871 10.7107 39.871H37.7893C39.7548 39.871 41.6039 39.0999 42.996 37.7014C43.6818 37.0155 44.2255 36.1997 44.5958 35.3013C44.966 34.4028 45.1555 33.4395 45.1532 32.4669C45.1532 32.3077 45.0903 32.1549 44.9783 32.0423C44.8663 31.9297 44.7144 31.8664 44.556 31.8664ZM8.00523 11.1915C8.00523 10.1647 8.83838 9.33001 9.86263 9.33001H38.6374C39.6617 9.33001 40.4948 10.1647 40.4948 11.1915V31.8664H28.4307C28.3411 31.8679 28.2531 31.8899 28.1733 31.9307C28.1203 31.9559 28.0714 31.9889 28.0281 32.0286C28.0204 32.0358 28.012 32.0406 28.0042 32.0472C27.964 32.0881 27.9298 32.1346 27.9027 32.1853L26.6796 34.5086H21.8205L20.5973 32.1859C20.5702 32.1352 20.5361 32.0887 20.4958 32.0478C20.488 32.04 20.4797 32.0358 20.4719 32.0286C20.4148 31.976 20.3481 31.9352 20.2754 31.9085C20.2098 31.8821 20.14 31.8679 20.0694 31.8664H8.00523V11.1915ZM42.1509 36.8523C41.5795 37.4301 40.8998 37.8882 40.1511 38.2002C39.4025 38.5122 38.5997 38.6719 37.7893 38.67H10.7107C7.51012 38.67 4.87094 36.2068 4.56994 33.0674H19.7098L20.933 35.3901C20.9838 35.4866 21.0598 35.5673 21.1528 35.6236C21.2458 35.6799 21.3524 35.7096 21.4609 35.7096H27.0391C27.1477 35.7096 27.2542 35.6799 27.3472 35.6236C27.4402 35.5673 27.5162 35.4866 27.5671 35.3901L28.7902 33.0674H43.9307C43.7951 34.4993 43.1654 35.8383 42.1509 36.8523Z" fill="#475569"/>
<path d="M31.6391 21.18L27.9949 24.2647C27.8737 24.3673 27.7974 24.5149 27.7829 24.6748C27.7684 24.8347 27.8167 24.994 27.9174 25.1176C28.0181 25.2412 28.1628 25.3189 28.3197 25.3337C28.4766 25.3485 28.6328 25.2992 28.754 25.1966L32.9384 21.6525C33.005 21.5963 33.0587 21.5258 33.0959 21.4462C33.133 21.3665 33.1526 21.2795 33.1532 21.1913C33.1539 21.1031 33.1357 21.0159 33.0998 20.9356C33.0639 20.8554 33.0113 20.7841 32.9455 20.7268L28.7611 17.0714C28.7019 17.0197 28.6332 16.9804 28.5591 16.9557C28.4849 16.931 28.4067 16.9214 28.329 16.9276C28.1719 16.9399 28.0261 17.0154 27.9236 17.1374C27.8212 17.2593 27.7704 17.4178 27.7825 17.5779C27.7947 17.738 27.8687 17.8867 27.9883 17.9912L31.6391 21.18ZM20.5817 25.1173C20.6316 25.0562 20.6691 24.9856 20.6923 24.9097C20.7154 24.8337 20.7236 24.7539 20.7164 24.6747C20.7093 24.5955 20.6869 24.5185 20.6505 24.4482C20.6141 24.3779 20.5645 24.3155 20.5045 24.2647L16.8602 21.18L20.511 17.9912C20.6307 17.8867 20.7047 17.738 20.7168 17.5779C20.729 17.4178 20.6782 17.2593 20.5757 17.1374C20.4733 17.0154 20.3275 16.9399 20.1704 16.9276C20.0133 16.9152 19.8579 16.9669 19.7383 17.0714L15.5539 20.7274C15.4883 20.7847 15.4358 20.856 15.4001 20.9362C15.3643 21.0164 15.3461 21.1036 15.3468 21.1916C15.3475 21.2797 15.367 21.3666 15.404 21.4462C15.441 21.5258 15.4946 21.5962 15.561 21.6525L19.7454 25.1959C19.8052 25.2469 19.8744 25.2854 19.9488 25.309C20.0233 25.3327 20.1016 25.3411 20.1793 25.3338C20.2569 25.3265 20.3324 25.3036 20.4014 25.2664C20.4703 25.2293 20.532 25.1786 20.5817 25.1173ZM22.0429 28.2305C22.1173 28.2542 22.1956 28.2627 22.2732 28.2556C22.3509 28.2485 22.4264 28.2259 22.4954 28.189C22.5645 28.1522 22.6258 28.1018 22.6757 28.0408C22.7257 27.9798 22.7634 27.9094 22.7866 27.8335L26.8037 14.7213C26.8504 14.5681 26.8357 14.4022 26.7625 14.2602C26.6894 14.1181 26.5639 14.0115 26.4137 13.9637C26.3394 13.9396 26.2611 13.9308 26.1834 13.9378C26.1057 13.9448 26.0301 13.9673 25.961 14.0043C25.8919 14.0412 25.8307 14.0917 25.7808 14.1528C25.731 14.214 25.6935 14.2846 25.6706 14.3606L21.653 27.4729C21.6062 27.6261 21.621 27.7919 21.6941 27.934C21.7672 28.0761 21.8927 28.1827 22.0429 28.2305Z" fill="#475569"/>
</svg>
