<svg width="54" height="54" viewBox="0 0 54 54" fill="none" xmlns="http://www.w3.org/2000/svg">
<path d="M7.48828 48.5156L3.16406 0H50.7305L46.4062 48.5156L26.8945 54" fill="#E34F26"/>
<path d="M27 49.7812L42.7148 45.457L46.4062 3.90234H27" fill="#EF652A"/>
<path d="M27 21.9375H19.0898L18.5625 15.8203H27V9.91406H12.0234L13.6055 27.9492H27V21.9375ZM26.8945 37.4414L20.25 35.6484L19.8281 30.9023H13.9219L14.6602 40.2891L26.8945 43.6641V37.4414Z" fill="#EBEBEB"/>
<path d="M26.8945 21.9375V27.9492H34.2773L33.5391 35.6484L26.8945 37.4414V43.6641L39.1289 40.2891L40.8164 21.9375H26.8945ZM26.8945 9.91406V15.8203H41.3438L41.8711 9.91406H26.8945Z" fill="white"/>
</svg>
