<svg width="54" height="54" viewBox="0 0 54 54" fill="none" xmlns="http://www.w3.org/2000/svg">
<g clip-path="url(#clip0_554_1458)">
<path d="M45.9 0H8.1C3.62649 0 0 3.62649 0 8.1V45.9C0 50.3735 3.62649 54 8.1 54H45.9C50.3735 54 54 50.3735 54 45.9V8.1C54 3.62649 50.3735 0 45.9 0Z" fill="#F7DF1E"/>
<path d="M34.1719 39.0234C35.2266 40.8164 36.7031 42.082 39.1289 42.082C41.2383 42.082 42.6094 41.0273 42.6094 39.5508C42.6094 37.8633 41.2383 37.2305 38.918 36.1758L37.6523 35.6484C33.9609 34.0664 31.5352 32.168 31.5352 28.0547C31.5352 24.2578 34.3828 21.3047 38.918 21.3047C42.1875 21.3047 44.5078 22.4648 46.0898 25.418L42.1875 27.9492C41.3438 26.3672 40.3945 25.7344 38.918 25.7344C37.4414 25.7344 36.4922 26.6836 36.4922 27.9492C36.4922 29.4258 37.4414 30.0586 39.6562 31.0078L40.9219 31.5352C45.2461 33.4336 47.6719 35.2266 47.6719 39.5508C47.6719 44.0859 44.0859 46.6172 39.2344 46.6172C34.4883 46.6172 31.4297 44.4023 29.9531 41.4492L34.1719 39.0234ZM16.2422 39.4453C17.0859 40.8164 17.7188 42.082 19.5117 42.082C21.1992 42.082 22.2539 41.4492 22.2539 38.918V21.4102H27.3164V38.707C27.3164 43.9805 24.2578 46.3008 19.7227 46.3008C15.6094 46.3008 13.2891 44.1914 12.1289 41.6602L16.2422 39.4453Z" fill="black"/>
</g>
<defs>
<clipPath id="clip0_554_1458">
<rect width="54" height="54" fill="white"/>
</clipPath>
</defs>
</svg>
