<svg width="894" height="327" viewBox="0 0 894 327" fill="none" xmlns="http://www.w3.org/2000/svg">
<path d="M0.333333 3C0.333333 4.47276 1.52724 5.66667 3 5.66667C4.47276 5.66667 5.66667 4.47276 5.66667 3C5.66667 1.52724 4.47276 0.333333 3 0.333333C1.52724 0.333333 0.333333 1.52724 0.333333 3ZM418.18 175.746L417.736 175.974L418.18 175.746ZM218 102.5H103V103.5H218V102.5ZM432.5 318V327H433.5V318H432.5ZM218 103.5C255.815 103.5 284.146 103.5 306.628 105.351C329.105 107.201 345.691 110.897 360.026 118.265L360.483 117.375C345.983 109.923 329.249 106.209 306.71 104.354C284.177 102.5 255.798 102.5 218 102.5V103.5ZM433.5 318C433.5 280.202 433.5 251.823 431.646 229.29C429.791 206.751 426.077 190.017 418.625 175.517L417.736 175.974C425.103 190.309 428.799 206.895 430.649 229.372C432.5 251.854 432.5 280.185 432.5 318H433.5ZM360.026 118.265C384.815 131.005 404.995 151.185 417.736 175.974L418.625 175.517C405.789 150.542 385.458 130.211 360.483 117.375L360.026 118.265ZM2.5 3C2.5 58.5046 47.4954 103.5 103 103.5V102.5C48.0477 102.5 3.5 57.9523 3.5 3H2.5Z" fill="#475569"/>
<path d="M447 0.333333C445.527 0.333333 444.333 1.52724 444.333 3C444.333 4.47276 445.527 5.66667 447 5.66667C448.473 5.66667 449.667 4.47276 449.667 3C449.667 1.52724 448.473 0.333333 447 0.333333ZM446.5 3L446.5 327L447.5 327L447.5 3L446.5 3Z" fill="#475569"/>
<path d="M893.667 3C893.667 4.47276 892.473 5.66667 891 5.66667C889.527 5.66667 888.333 4.47276 888.333 3C888.333 1.52724 889.527 0.333333 891 0.333333C892.473 0.333333 893.667 1.52724 893.667 3ZM475.82 175.746L476.264 175.974L475.82 175.746ZM676 102.5H791V103.5H676V102.5ZM461.5 318V327H460.5V318H461.5ZM676 103.5C638.185 103.5 609.854 103.5 587.372 105.351C564.895 107.201 548.309 110.897 533.974 118.265L533.517 117.375C548.017 109.923 564.751 106.209 587.29 104.354C609.823 102.5 638.202 102.5 676 102.5V103.5ZM460.5 318C460.5 280.202 460.5 251.823 462.354 229.29C464.209 206.751 467.923 190.017 475.375 175.517L476.264 175.974C468.897 190.309 465.201 206.895 463.351 229.372C461.5 251.854 461.5 280.185 461.5 318H460.5ZM533.974 118.265C509.185 131.005 489.005 151.185 476.264 175.974L475.375 175.517C488.211 150.542 508.542 130.211 533.517 117.375L533.974 118.265ZM891.5 3C891.5 58.5046 846.505 103.5 791 103.5V102.5C845.952 102.5 890.5 57.9523 890.5 3H891.5Z" fill="#475569"/>
</svg>
