<svg width="49" height="48" viewBox="0 0 49 48" fill="none" xmlns="http://www.w3.org/2000/svg">
<path d="M35.9288 7.54856C32.6615 4.44814 28.374 2.87299 23.8512 3.12245C15.419 3.5786 8.52769 10.82 8.49202 19.2731C8.48389 21.8959 9.1109 24.4818 10.3196 26.81C11.5282 29.1383 13.2827 31.1399 15.4333 32.6441C16.0822 33.0969 16.6272 33.6825 17.0319 34.3621C17.4366 35.0418 17.6917 35.7997 17.7803 36.5856C16.9028 36.8564 16.2608 37.6618 16.2608 38.624V38.8806C16.2608 40.0566 17.2238 41.0188 18.4009 41.0188H19.3711V41.8598C19.3711 43.5348 20.7337 44.9032 22.4173 44.9032H27.0828C28.7593 44.9032 30.129 43.5419 30.129 41.8598V41.0188H31.0992C32.2763 41.0188 33.2393 40.0566 33.2393 38.8806V38.624C33.2393 37.6618 32.5973 36.8564 31.7198 36.5856C31.8042 35.803 32.0554 35.0475 32.4566 34.3701C32.8577 33.6927 33.3995 33.109 34.0454 32.6584C36.1926 31.1626 37.9467 29.1712 39.1589 26.8534C40.371 24.5355 41.0054 21.9596 41.0081 19.3444C41.0081 14.8399 39.2032 10.649 35.9288 7.54856ZM28.7022 41.8527C28.7022 42.7436 27.9745 43.4706 27.0828 43.4706H22.4173C21.5256 43.4706 20.7979 42.7436 20.7979 41.8527V41.0117H28.6951V41.8527H28.7022ZM31.8054 38.8806C31.8054 39.2726 31.4844 39.5933 31.092 39.5933H18.4081C18.0157 39.5933 17.6947 39.2726 17.6947 38.8806V38.624C17.6947 38.232 18.0157 37.9113 18.4081 37.9113H31.0992C31.4915 37.9113 31.8126 38.232 31.8126 38.624V38.8806H31.8054ZM33.2251 31.4895C32.4045 32.0622 31.7171 32.805 31.2099 33.6673C30.7027 34.5295 30.3875 35.4908 30.2859 36.4858H19.2071C19.1025 35.488 18.7847 34.5244 18.2752 33.6599C17.7657 32.7955 17.0763 32.0505 16.2536 31.4752C14.2917 30.1036 12.6909 28.2782 11.5878 26.1547C10.4847 24.0312 9.91211 21.6727 9.91879 19.2802C9.94733 11.5684 16.2322 4.96132 23.9297 4.54793C28.053 4.32698 31.9624 5.75959 34.9443 8.58916C37.9334 11.4187 39.5742 15.239 39.5742 19.3444C39.5813 24.1768 37.2057 28.7169 33.2251 31.4895Z" fill="#475569"/>
<path d="M33.2111 15.5634L34.1393 14.2639C34.3392 13.9783 34.3107 13.5928 34.0607 13.3429L30.762 10.0441C30.5192 9.79421 30.1265 9.76565 29.8409 9.96558L28.5414 10.8938C28.3772 10.8224 28.213 10.751 28.0559 10.6867L27.7917 9.1159C27.7346 8.77318 27.4347 8.51613 27.0848 8.51613H22.4152C22.2453 8.51564 22.0808 8.57577 21.9512 8.6857C21.8216 8.79563 21.7355 8.94817 21.7083 9.1159L21.4441 10.6867C21.2799 10.751 21.1157 10.8153 20.9586 10.8938L19.6591 9.96558C19.3735 9.76565 18.9879 9.79421 18.738 10.0441L15.4393 13.3429C15.1894 13.5928 15.1608 13.9783 15.3608 14.2639L16.289 15.5634C16.2176 15.7277 16.1462 15.8919 16.0819 16.049L14.5111 16.3131C14.1684 16.3703 13.9113 16.6702 13.9113 17.02V21.6897C13.9108 21.8596 13.971 22.0241 14.0809 22.1537C14.1908 22.2832 14.3434 22.3693 14.5111 22.3965L16.0819 22.6607C16.1462 22.8249 16.2104 22.9892 16.289 23.1462L15.3608 24.4457C15.1608 24.7313 15.1894 25.1169 15.4393 25.3668L18.738 28.6656C18.9808 28.9155 19.3735 28.944 19.6591 28.7441L20.9586 27.8159C21.1228 27.8873 21.2871 27.9587 21.4441 28.0229L21.7083 29.5938C21.7655 29.9365 22.0653 30.1935 22.4152 30.1935H27.0848C27.2548 30.194 27.4193 30.1339 27.5489 30.024C27.6784 29.914 27.7645 29.7615 27.7917 29.5938L28.0559 28.0229C28.2201 27.9587 28.3843 27.8944 28.5414 27.8159L29.8409 28.7441C30.1265 28.944 30.5121 28.9155 30.762 28.6656L34.0607 25.3668C34.3107 25.1169 34.3392 24.7313 34.1393 24.4457L33.2111 23.1462C33.2825 22.982 33.3539 22.8178 33.4181 22.6607L34.989 22.3965C35.3317 22.3394 35.5887 22.0395 35.5887 21.6897V17.02C35.5892 16.8501 35.5291 16.6856 35.4192 16.556C35.3092 16.4264 35.1567 16.3403 34.989 16.3131L33.4181 16.049C33.3539 15.8919 33.2825 15.7277 33.2111 15.5634ZM34.1536 21.0827L32.7684 21.3112C32.5042 21.3541 32.29 21.5397 32.2043 21.7896C32.0829 22.1538 31.933 22.5251 31.7473 22.8821C31.626 23.1177 31.6474 23.4033 31.8045 23.6175L32.6256 24.767L30.1837 27.209L29.0341 26.3879C28.8199 26.2308 28.5343 26.2094 28.2987 26.3307C27.9345 26.5164 27.5704 26.6663 27.2062 26.7877C26.9563 26.8734 26.7707 27.0876 26.7278 27.3518L26.4994 28.737H23.0435L22.8151 27.3518C22.7938 27.2222 22.7373 27.101 22.6516 27.0015C22.5659 26.902 22.4545 26.828 22.3295 26.7877C21.9654 26.6663 21.6012 26.5164 21.2371 26.3307C21.1213 26.2711 20.9911 26.2448 20.8613 26.2549C20.7314 26.265 20.6069 26.311 20.5017 26.3879L19.3521 27.209L16.9102 24.767L17.7313 23.6175C17.8884 23.4033 17.9098 23.1177 17.7884 22.8821C17.6028 22.5179 17.4528 22.1466 17.3314 21.7896C17.2458 21.5397 17.0316 21.3541 16.7674 21.3112L15.3822 21.0827V17.6269L16.7674 17.3984C17.0316 17.3556 17.2458 17.17 17.3314 16.9201C17.4528 16.5559 17.6028 16.1918 17.7884 15.8205C17.9098 15.5849 17.8884 15.2992 17.7313 15.085L16.9102 13.9355L19.3521 11.4936L20.5017 12.3147C20.7159 12.4718 21.0015 12.4932 21.2371 12.3718C21.6012 12.1862 21.9725 12.0362 22.3367 11.9148C22.5866 11.8291 22.7722 11.6149 22.8151 11.3508L23.0435 9.96558H26.4994L26.7278 11.3508C26.7707 11.6149 26.9563 11.8291 27.2062 11.9148C27.5704 12.0362 27.9345 12.1862 28.2987 12.3718C28.5343 12.4932 28.8199 12.4718 29.0341 12.3147L30.1837 11.4936L32.6256 13.9355L31.8045 15.085C31.6474 15.2992 31.626 15.5849 31.7473 15.8205C31.933 16.1846 32.0829 16.5559 32.2043 16.9129C32.29 17.1628 32.5042 17.3485 32.7684 17.3984L34.1536 17.6269V21.0827Z" fill="#475569"/>
<path d="M24.75 13.7955C21.785 13.7955 19.3759 16.2028 19.3759 19.1656C19.3759 22.1283 21.785 24.5285 24.75 24.5285C27.7151 24.5285 30.1241 22.1212 30.1241 19.1584C30.1241 16.1957 27.7151 13.7955 24.75 13.7955ZM24.75 23.1041C23.7028 23.1041 22.6984 22.6884 21.9579 21.9484C21.2174 21.2085 20.8014 20.2049 20.8014 19.1584C20.8014 18.112 21.2174 17.1084 21.9579 16.3685C22.6984 15.6285 23.7028 15.2128 24.75 15.2128C25.7973 15.2128 26.8016 15.6285 27.5421 16.3685C28.2826 17.1084 28.6986 18.112 28.6986 19.1584C28.6986 20.2049 28.2826 21.2085 27.5421 21.9484C26.8016 22.6884 25.7973 23.1041 24.75 23.1041ZM46.4889 18.4534H43.3813C42.9893 18.4534 42.6685 18.7739 42.6685 19.1656C42.6685 19.5573 42.9893 19.8778 43.3813 19.8778H46.4889C46.8809 19.8778 47.2016 19.5573 47.2016 19.1656C47.2016 18.7739 46.8809 18.4534 46.4889 18.4534ZM6.11874 18.4534H3.01115C2.61914 18.4534 2.2984 18.7739 2.2984 19.1656C2.2984 19.5573 2.61914 19.8778 3.01115 19.8778H6.11874C6.51075 19.8778 6.83149 19.5573 6.83149 19.1656C6.83149 18.7739 6.51075 18.4534 6.11874 18.4534ZM37.9288 6.70909C38.1141 6.70909 38.2923 6.63787 38.4348 6.50255L40.6301 4.30896C40.6961 4.24302 40.7484 4.16475 40.7841 4.07859C40.8198 3.99244 40.8382 3.90011 40.8382 3.80686C40.8382 3.71361 40.8198 3.62127 40.7841 3.53512C40.7484 3.44897 40.6961 3.37069 40.6301 3.30475C40.5641 3.23882 40.4857 3.18651 40.3995 3.15083C40.3133 3.11514 40.2209 3.09677 40.1276 3.09677C40.0343 3.09677 39.9419 3.11514 39.8556 3.15083C39.7694 3.18651 39.6911 3.23882 39.6251 3.30475L37.4298 5.49835C37.3638 5.56423 37.3113 5.6425 37.2756 5.72865C37.2398 5.81481 37.2214 5.90717 37.2214 6.00045C37.2214 6.09373 37.2398 6.18609 37.2756 6.27224C37.3113 6.3584 37.3638 6.43667 37.4298 6.50255C37.5581 6.63787 37.7434 6.70909 37.9288 6.70909ZM11.0723 31.8215L8.87708 34.015C8.77762 34.1145 8.70998 34.2413 8.68276 34.3792C8.65553 34.5172 8.66995 34.6601 8.72418 34.7898C8.77841 34.9196 8.87 35.0303 8.98733 35.1079C9.10465 35.1855 9.24242 35.2266 9.38313 35.2258C9.56845 35.2258 9.74663 35.1546 9.88918 35.0193L12.0845 32.8257C12.3624 32.5479 12.3624 32.0992 12.0845 31.8215C11.8065 31.5437 11.3503 31.5437 11.0723 31.8215ZM11.0723 6.50255C11.2149 6.645 11.3931 6.70909 11.5784 6.70909C11.7637 6.70909 11.9419 6.63787 12.0845 6.50255C12.1505 6.43667 12.2029 6.3584 12.2387 6.27224C12.2745 6.18609 12.2929 6.09373 12.2929 6.00045C12.2929 5.90717 12.2745 5.81481 12.2387 5.72865C12.2029 5.6425 12.1505 5.56423 12.0845 5.49835L9.88918 3.30475C9.8232 3.23882 9.74486 3.18651 9.65864 3.15083C9.57242 3.11514 9.48002 3.09677 9.3867 3.09677C9.29337 3.09677 9.20097 3.11514 9.11475 3.15083C9.02853 3.18651 8.95019 3.23882 8.88421 3.30475C8.81822 3.37069 8.76588 3.44897 8.73016 3.53512C8.69445 3.62127 8.67607 3.71361 8.67607 3.80686C8.67607 3.90011 8.69445 3.99244 8.73016 4.07859C8.76588 4.16475 8.81822 4.24302 8.88421 4.30896L11.0723 6.50255ZM38.4277 31.8215C38.2944 31.6883 38.1137 31.6135 37.9252 31.6135C37.7367 31.6135 37.556 31.6883 37.4227 31.8215C37.2894 31.9546 37.2146 32.1352 37.2146 32.3236C37.2146 32.5119 37.2894 32.6925 37.4227 32.8257L39.618 35.0193C39.7605 35.1617 39.9387 35.2258 40.124 35.2258C40.3093 35.2258 40.4875 35.1546 40.6301 35.0193C40.6961 34.9534 40.7486 34.8751 40.7843 34.7889C40.8201 34.7028 40.8385 34.6104 40.8385 34.5172C40.8385 34.4239 40.8201 34.3315 40.7843 34.2454C40.7486 34.1592 40.6961 34.0809 40.6301 34.015L38.4277 31.8215Z" fill="#475569"/>
</svg>
