<svg width="49" height="48" viewBox="0 0 49 48" fill="none" xmlns="http://www.w3.org/2000/svg">
<path d="M24.9411 24.9083C27.4817 24.9096 29.918 25.9077 31.7149 27.6836C33.5118 29.4594 34.5226 31.8677 34.5251 34.3798V44.5732C34.5251 44.7634 34.6015 44.9458 34.7376 45.0803C34.8736 45.2148 35.0581 45.2903 35.2504 45.2903C35.4428 45.2903 35.6273 45.2148 35.7633 45.0803C35.8994 44.9458 35.9758 44.7634 35.9758 44.5732V34.3798C35.9719 31.4877 34.808 28.7153 32.7393 26.6707C30.6705 24.6262 27.8661 23.4765 24.9411 23.474C22.4013 23.4715 19.9663 22.4728 18.1704 20.6971C16.3745 18.9214 15.3645 16.5138 15.3619 14.0026V3.81394C15.3619 3.62374 15.2855 3.44132 15.1495 3.30683C15.0134 3.17233 14.829 3.09677 14.6366 3.09677C14.4442 3.09677 14.2597 3.17233 14.1237 3.30683C13.9877 3.44132 13.9113 3.62374 13.9113 3.81394V14.0026C13.9151 16.8938 15.0784 19.6655 17.1461 21.7099C19.2137 23.7543 22.017 24.9045 24.9411 24.9083ZM14.6366 45.2903C14.829 45.2903 15.0134 45.2148 15.1495 45.0803C15.2855 44.9458 15.3619 44.7634 15.3619 44.5732V34.3798C15.3637 33.0611 15.6432 31.7573 16.1827 30.5514C16.7222 29.3454 17.5098 28.2638 18.4953 27.3754C18.6186 27.2441 18.6877 27.072 18.689 26.8928C18.6904 26.7137 18.6239 26.5406 18.5026 26.4075C18.3813 26.2744 18.2141 26.191 18.0338 26.1737C17.8535 26.1564 17.6731 26.2064 17.5282 26.314C16.3935 27.3371 15.4867 28.5827 14.8657 29.9713C14.2446 31.36 13.9229 32.8614 13.9209 34.3798V44.5732C13.9209 44.7617 13.996 44.9427 14.1299 45.0769C14.2639 45.2111 14.4459 45.2878 14.6366 45.2903ZM30.9565 21.3751C30.8755 21.4316 30.8071 21.504 30.7555 21.5877C30.7039 21.6715 30.6703 21.7648 30.6566 21.8619C30.6429 21.959 30.6495 22.0578 30.676 22.1523C30.7024 22.2468 30.7482 22.3349 30.8105 22.4112C30.8728 22.4875 30.9502 22.5503 31.038 22.5959C31.1258 22.6414 31.2221 22.6687 31.321 22.676C31.4199 22.6833 31.5192 22.6705 31.6129 22.6383C31.7065 22.6062 31.7925 22.5554 31.8656 22.4891C33.1498 21.4685 34.1855 20.1754 34.8961 18.7056C35.6068 17.2358 35.9741 15.6269 35.9709 13.9978V3.81394C35.9709 3.62374 35.8945 3.44132 35.7585 3.30683C35.6225 3.17233 35.438 3.09677 35.2456 3.09677C35.0532 3.09677 34.8687 3.17233 34.7327 3.30683C34.5967 3.44132 34.5203 3.62374 34.5203 3.81394V14.0026C34.5229 15.4169 34.204 16.8138 33.5872 18.0899C32.9703 19.366 32.0713 20.4888 30.9565 21.3751Z" fill="#475569"/>
<path d="M20.444 16.0929C20.2574 16.0929 20.0785 16.1681 19.9465 16.3019C19.8146 16.4357 19.7404 16.6171 19.7404 16.8063C19.7404 16.9956 19.8146 17.177 19.9465 17.3108C20.0785 17.4446 20.2574 17.5198 20.444 17.5198H29.0559C29.2425 17.5198 29.4215 17.4446 29.5535 17.3108C29.6854 17.177 29.7595 16.9956 29.7595 16.8063C29.7595 16.6171 29.6854 16.4357 29.5535 16.3019C29.4215 16.1681 29.2425 16.0929 29.0559 16.0929H20.444ZM30.9322 12.0502C30.9322 11.861 30.858 11.6795 30.7261 11.5457C30.5941 11.4119 30.4152 11.3368 30.2286 11.3368H19.2714C19.0848 11.3368 18.9058 11.4119 18.7739 11.5457C18.6419 11.6795 18.5678 11.861 18.5678 12.0502C18.5678 12.2394 18.6419 12.4209 18.7739 12.5547C18.9058 12.6885 19.0848 12.7636 19.2714 12.7636H30.2286C30.4152 12.7636 30.5941 12.6885 30.7261 12.5547C30.858 12.4209 30.9322 12.2394 30.9322 12.0502ZM18.0987 8.00749H31.4012C31.5878 8.00749 31.7668 7.93232 31.8987 7.79853C32.0307 7.66474 32.1048 7.48328 32.1048 7.29407C32.1048 7.10485 32.0307 6.92339 31.8987 6.7896C31.7668 6.65581 31.5878 6.58064 31.4012 6.58064H18.0987C17.9121 6.58064 17.7332 6.65581 17.6012 6.7896C17.4693 6.92339 17.3951 7.10485 17.3951 7.29407C17.3951 7.48328 17.4693 7.66474 17.6012 7.79853C17.7332 7.93232 17.9121 8.00749 18.0987 8.00749ZM29.0559 31.9071C29.2425 31.9071 29.4215 31.8319 29.5535 31.6981C29.6854 31.5643 29.7595 31.3829 29.7595 31.1937C29.7595 31.0044 29.6854 30.823 29.5535 30.6892C29.4215 30.5554 29.2425 30.4802 29.0559 30.4802H20.444C20.2574 30.4802 20.0785 30.5554 19.9465 30.6892C19.8146 30.823 19.7404 31.0044 19.7404 31.1937C19.7404 31.3829 19.8146 31.5643 19.9465 31.6981C20.0785 31.8319 20.2574 31.9071 20.444 31.9071H29.0559ZM18.5678 35.9498C18.5678 36.139 18.6419 36.3205 18.7739 36.4543C18.9058 36.5881 19.0848 36.6632 19.2714 36.6632H30.2286C30.4152 36.6632 30.5941 36.5881 30.7261 36.4543C30.858 36.3205 30.9322 36.139 30.9322 35.9498C30.9322 35.7606 30.858 35.5791 30.7261 35.4453C30.5941 35.3115 30.4152 35.2364 30.2286 35.2364H19.2714C19.0848 35.2364 18.9058 35.3115 18.7739 35.4453C18.6419 35.5791 18.5678 35.7606 18.5678 35.9498ZM17.3951 40.7059C17.3951 40.8951 17.4693 41.0766 17.6012 41.2104C17.7332 41.3442 17.9121 41.4194 18.0987 41.4194H31.4012C31.5878 41.4194 31.7668 41.3442 31.8987 41.2104C32.0307 41.0766 32.1048 40.8951 32.1048 40.7059C32.1048 40.5167 32.0307 40.3353 31.8987 40.2015C31.7668 40.0677 31.5878 39.9925 31.4012 39.9925H18.0987C17.9121 39.9925 17.7332 40.0677 17.6012 40.2015C17.4693 40.3353 17.3951 40.5167 17.3951 40.7059Z" fill="#475569"/>
</svg>
