<svg width="1440" height="851" viewBox="0 0 1440 851" fill="none" xmlns="http://www.w3.org/2000/svg">
<g opacity="0.14" clip-path="url(#clip0_706_20624)">
<line x1="2" y1="-409.333" x2="1.99994" y2="850.667" stroke="#3B82F6" stroke-width="4"/>
<line x1="182" y1="-409.333" x2="182" y2="850.667" stroke="#3B82F6" stroke-width="4"/>
<line x1="362" y1="-409.333" x2="362" y2="850.667" stroke="#3B82F6" stroke-width="4"/>
<line x1="542" y1="-409.333" x2="542" y2="850.667" stroke="#3B82F6" stroke-width="4"/>
<line x1="1440" y1="131" x2="-1.9825e-07" y2="131" stroke="#3B82F6" stroke-width="4"/>
<line x1="722" y1="-409.333" x2="722" y2="850.667" stroke="#3B82F6" stroke-width="4"/>
<line x1="1440" y1="311" x2="-1.9825e-07" y2="311" stroke="#3B82F6" stroke-width="4"/>
<line x1="902" y1="-409.333" x2="902" y2="850.667" stroke="#3B82F6" stroke-width="4"/>
<line x1="1440" y1="491" x2="-1.9825e-07" y2="491" stroke="#3B82F6" stroke-width="4"/>
<line x1="1082" y1="-409.333" x2="1082" y2="850.667" stroke="#3B82F6" stroke-width="4"/>
<line x1="1440" y1="671" x2="-1.9825e-07" y2="671" stroke="#3B82F6" stroke-width="4"/>
<line x1="1262" y1="-409.333" x2="1262" y2="850.667" stroke="#3B82F6" stroke-width="4"/>
<line x1="1440" y1="851" x2="-1.9825e-07" y2="851" stroke="#3B82F6" stroke-width="4"/>
<g filter="url(#filter0_f_706_20624)">
<circle cx="1316.5" cy="511.5" r="190.5" fill="white"/>
</g>
<g filter="url(#filter1_f_706_20624)">
<circle cx="110.5" cy="59.5" r="190.5" fill="white"/>
</g>
<g opacity="0.74" filter="url(#filter2_f_706_20624)">
<ellipse cx="703.939" cy="427.521" rx="331.84" ry="439.953" transform="rotate(-130.815 703.939 427.521)" fill="white"/>
</g>
<g filter="url(#filter3_f_706_20624)">
<circle cx="619.5" cy="-9.5" r="136.5" fill="white"/>
</g>
<g filter="url(#filter4_f_706_20624)">
<rect y="613" width="1440" height="321" fill="white"/>
</g>
</g>
<defs>
<filter id="filter0_f_706_20624" x="1002" y="197" width="629" height="629" filterUnits="userSpaceOnUse" color-interpolation-filters="sRGB">
<feFlood flood-opacity="0" result="BackgroundImageFix"/>
<feBlend mode="normal" in="SourceGraphic" in2="BackgroundImageFix" result="shape"/>
<feGaussianBlur stdDeviation="62" result="effect1_foregroundBlur_706_20624"/>
</filter>
<filter id="filter1_f_706_20624" x="-204" y="-255" width="629" height="629" filterUnits="userSpaceOnUse" color-interpolation-filters="sRGB">
<feFlood flood-opacity="0" result="BackgroundImageFix"/>
<feBlend mode="normal" in="SourceGraphic" in2="BackgroundImageFix" result="shape"/>
<feGaussianBlur stdDeviation="62" result="effect1_foregroundBlur_706_20624"/>
</filter>
<filter id="filter2_f_706_20624" x="182.513" y="-78.2769" width="1042.85" height="1011.6" filterUnits="userSpaceOnUse" color-interpolation-filters="sRGB">
<feFlood flood-opacity="0" result="BackgroundImageFix"/>
<feBlend mode="normal" in="SourceGraphic" in2="BackgroundImageFix" result="shape"/>
<feGaussianBlur stdDeviation="62" result="effect1_foregroundBlur_706_20624"/>
</filter>
<filter id="filter3_f_706_20624" x="359" y="-270" width="521" height="521" filterUnits="userSpaceOnUse" color-interpolation-filters="sRGB">
<feFlood flood-opacity="0" result="BackgroundImageFix"/>
<feBlend mode="normal" in="SourceGraphic" in2="BackgroundImageFix" result="shape"/>
<feGaussianBlur stdDeviation="62" result="effect1_foregroundBlur_706_20624"/>
</filter>
<filter id="filter4_f_706_20624" x="-224" y="389" width="1888" height="769" filterUnits="userSpaceOnUse" color-interpolation-filters="sRGB">
<feFlood flood-opacity="0" result="BackgroundImageFix"/>
<feBlend mode="normal" in="SourceGraphic" in2="BackgroundImageFix" result="shape"/>
<feGaussianBlur stdDeviation="112" result="effect1_foregroundBlur_706_20624"/>
</filter>
<clipPath id="clip0_706_20624">
<rect width="1440" height="1261.67" fill="white" transform="translate(0 -411)"/>
</clipPath>
</defs>
</svg>
