<svg width="54" height="54" viewBox="0 0 54 54" fill="none" xmlns="http://www.w3.org/2000/svg">
<g clip-path="url(#clip0_554_1468)">
<path d="M27 30.7969C29.097 30.7969 30.7969 29.097 30.7969 27C30.7969 24.903 29.097 23.2031 27 23.2031C24.903 23.2031 23.2031 24.903 23.2031 27C23.2031 29.097 24.903 30.7969 27 30.7969Z" fill="#61DAFB"/>
<path d="M33.4832 30.737C35.9665 26.2659 37.6221 21.6592 38.0859 17.9301C38.5497 14.201 37.7837 11.6549 35.9564 10.8519C34.1291 10.0489 31.3901 11.0546 28.3418 13.648C25.2936 16.2414 22.1858 20.2099 19.702 24.6808C17.2182 29.1517 15.5618 33.7587 15.0971 37.4885C14.6324 41.2184 15.3976 43.7655 17.2242 44.5698C19.0508 45.3741 21.7894 44.3696 24.8374 41.7773C27.8855 39.185 30.9936 35.2171 33.4779 30.7465L33.4832 30.737ZM20.5221 30.7465C23.0064 35.2171 26.1145 39.185 29.1626 41.7773C32.2106 44.3696 34.9492 45.3741 36.7758 44.5698C38.6024 43.7655 39.3676 41.2184 38.9029 37.4885C38.4382 33.7587 36.7818 29.1517 34.298 24.6808C31.8142 20.2099 28.7064 16.2414 25.6582 13.648C22.6099 11.0546 19.8709 10.0489 18.0436 10.8519C16.2163 11.6549 15.4503 14.201 15.9141 17.9301C16.3779 21.6592 18.0335 26.2659 20.5168 30.737L20.5221 30.7465ZM27.0053 34.4833C32.1237 34.4827 37.032 33.6934 40.6505 32.2889C44.269 30.8844 46.3015 28.9798 46.3008 26.9939C46.3001 25.0081 44.2663 23.1037 40.6468 21.6996C37.0273 20.2955 32.1184 19.5067 27 19.5067C21.8816 19.5067 16.9727 20.2955 13.3532 21.6996C9.7337 23.1037 7.69992 25.0081 7.69922 26.9939C7.69852 28.9798 9.73096 30.8844 13.3495 32.2889C16.968 33.6934 21.8763 34.4827 26.9947 34.4833H27.0053Z" stroke="#61DAFB"/>
</g>
<defs>
<clipPath id="clip0_554_1468">
<rect width="54" height="54" fill="white"/>
</clipPath>
</defs>
</svg>
