<svg width="434" height="327" viewBox="0 0 434 327" fill="none" xmlns="http://www.w3.org/2000/svg">
<path d="M0.333333 3C0.333333 4.47276 1.52724 5.66667 3 5.66667C4.47276 5.66667 5.66667 4.47276 5.66667 3C5.66667 1.52724 4.47276 0.333333 3 0.333333C1.52724 0.333333 0.333333 1.52724 0.333333 3ZM418.18 175.746L417.736 175.974L418.18 175.746ZM218 102.5H103V103.5H218V102.5ZM432.5 318V327H433.5V318H432.5ZM218 103.5C255.815 103.5 284.146 103.5 306.628 105.351C329.105 107.201 345.691 110.897 360.026 118.265L360.483 117.375C345.983 109.923 329.249 106.209 306.71 104.354C284.177 102.5 255.798 102.5 218 102.5V103.5ZM433.5 318C433.5 280.202 433.5 251.823 431.646 229.29C429.791 206.751 426.077 190.017 418.625 175.517L417.736 175.974C425.103 190.309 428.799 206.895 430.649 229.372C432.5 251.854 432.5 280.185 432.5 318H433.5ZM360.026 118.265C384.815 131.005 404.995 151.185 417.736 175.974L418.625 175.517C405.789 150.542 385.458 130.211 360.483 117.375L360.026 118.265ZM2.5 3C2.5 58.5046 47.4954 103.5 103 103.5V102.5C48.0477 102.5 3.5 57.9523 3.5 3H2.5Z" fill="#475569"/>
</svg>
