<svg width="213" height="556" viewBox="0 0 213 556" fill="none" xmlns="http://www.w3.org/2000/svg">
<path d="M3.00002 11.8333C4.47278 11.8333 5.66669 13.0272 5.66669 14.5C5.66669 15.9728 4.47278 17.1667 3.00002 17.1667C1.52727 17.1667 0.333358 15.9728 0.333358 14.5C0.333358 13.0272 1.52727 11.8333 3.00002 11.8333ZM3.00002 515.5L2.50002 515.5L3.00002 515.5ZM7.10053 491.6L6.74698 491.247L7.10053 491.6ZM207.9 483.399L208.253 483.753L207.9 483.399ZM207.9 5.1005L208.253 4.74695L207.9 5.1005ZM211.5 459.5L211.5 29L212.5 29L212.5 459.5L211.5 459.5ZM184 1.5L16.5 1.5L16.5 0.5L184 0.5L184 1.5ZM184 488L31 488L31 487L184 487L184 488ZM3.50002 515.5L3.50002 555.5L2.50002 555.5L2.50002 515.5L3.50002 515.5ZM31 488C24.3862 488 19.4762 488.001 15.7048 488.508C11.9479 489.013 9.39595 490.012 7.45408 491.954L6.74698 491.247C8.90561 489.088 11.7038 488.037 15.5716 487.517C19.425 486.999 24.4145 487 31 487L31 488ZM2.50002 515.5C2.50002 508.914 2.49896 503.925 3.01705 500.072C3.53706 496.204 4.58834 493.406 6.74698 491.247L7.45408 491.954C5.51221 493.896 4.51324 496.448 4.00813 500.205C3.50109 503.976 3.50002 508.886 3.50002 515.5L2.50002 515.5ZM16.5 1.5C9.32033 1.5 3.50002 7.3203 3.50002 14.5L2.50002 14.5C2.50002 6.76801 8.76804 0.5 16.5 0.5L16.5 1.5ZM212.5 459.5C212.5 466.086 212.501 471.075 211.983 474.928C211.463 478.796 210.412 481.594 208.253 483.753L207.546 483.046C209.488 481.104 210.487 478.552 210.992 474.795C211.499 471.024 211.5 466.114 211.5 459.5L212.5 459.5ZM184 487C190.614 487 195.524 486.999 199.295 486.492C203.052 485.987 205.604 484.988 207.546 483.046L208.253 483.753C206.094 485.912 203.296 486.963 199.428 487.483C195.575 488.001 190.586 488 184 488L184 487ZM211.5 29C211.5 22.3862 211.499 17.4762 210.992 13.7048C210.487 9.94787 209.488 7.39593 207.546 5.45406L208.253 4.74695C210.412 6.90559 211.463 9.70373 211.983 13.5716C212.501 17.425 212.5 22.4145 212.5 29L211.5 29ZM184 0.5C190.586 0.5 195.575 0.498938 199.428 1.01702C203.296 1.53704 206.094 2.58831 208.253 4.74695L207.546 5.45406C205.604 3.51219 203.052 2.51321 199.295 2.0081C195.524 1.50106 190.614 1.5 184 1.5L184 0.5Z" fill="#475569"/>
</svg>
