<svg width="213" height="580" viewBox="0 0 213 580" fill="none" xmlns="http://www.w3.org/2000/svg">
<path d="M3 11.8333C4.47276 11.8333 5.66667 13.0272 5.66667 14.5C5.66667 15.9728 4.47276 17.1667 3 17.1667C1.52724 17.1667 0.333334 15.9728 0.333334 14.5C0.333334 13.0272 1.52724 11.8333 3 11.8333ZM207.899 5.1005L208.253 4.74695L207.899 5.1005ZM211.5 579.5L211.5 29L212.5 29L212.5 579.5L211.5 579.5ZM184 1.5L16.5 1.5L16.5 0.5L184 0.5L184 1.5ZM16.5 1.5C9.3203 1.5 3.5 7.3203 3.5 14.5L2.5 14.5C2.5 6.76801 8.76802 0.5 16.5 0.5L16.5 1.5ZM211.5 29C211.5 22.3862 211.499 17.4762 210.992 13.7048C210.487 9.94787 209.488 7.39593 207.546 5.45406L208.253 4.74695C210.412 6.90559 211.463 9.70373 211.983 13.5716C212.501 17.425 212.5 22.4145 212.5 29L211.5 29ZM184 0.5C190.586 0.5 195.575 0.498938 199.428 1.01702C203.296 1.53704 206.094 2.58831 208.253 4.74695L207.546 5.45406C205.604 3.51219 203.052 2.51321 199.295 2.0081C195.524 1.50106 190.614 1.5 184 1.5L184 0.5Z" fill="#475569"/>
</svg>
