<svg width="434" height="327" viewBox="0 0 434 327" fill="none" xmlns="http://www.w3.org/2000/svg">
<path d="M433.667 3C433.667 4.47276 432.473 5.66667 431 5.66667C429.527 5.66667 428.333 4.47276 428.333 3C428.333 1.52724 429.527 0.333333 431 0.333333C432.473 0.333333 433.667 1.52724 433.667 3ZM15.8198 175.746L16.2645 175.974L15.8198 175.746ZM216 102.5H331V103.5H216V102.5ZM1.5 318V327H0.5V318H1.5ZM216 103.5C178.185 103.5 149.854 103.5 127.372 105.351C104.895 107.201 88.3088 110.897 73.9743 118.265L73.5172 117.375C88.0171 109.923 104.751 106.209 127.29 104.354C149.823 102.5 178.202 102.5 216 102.5V103.5ZM0.5 318C0.5 280.202 0.499603 251.823 2.35416 229.29C4.2092 206.751 7.9227 190.017 15.3751 175.517L16.2645 175.974C8.89709 190.309 5.20071 206.895 3.3508 229.372C1.5004 251.854 1.5 280.185 1.5 318H0.5ZM73.9743 118.265C49.1852 131.005 29.0052 151.185 16.2645 175.974L15.3751 175.517C28.2113 150.542 48.5423 130.211 73.5172 117.375L73.9743 118.265ZM431.5 3C431.5 58.5046 386.505 103.5 331 103.5V102.5C385.952 102.5 430.5 57.9523 430.5 3H431.5Z" fill="#475569"/>
</svg>
