<svg width="518" height="130" viewBox="0 0 518 130" fill="none" xmlns="http://www.w3.org/2000/svg">
<path d="M36.4063 122.854L36.3252 123.851L36.4063 122.854ZM39.163 123.571L38.7589 124.485L39.163 123.571ZM37.7836 123.022L37.5376 123.992L37.7836 123.022ZM13.9343 121.027L13.8533 122.024L13.9343 121.027ZM9.5846 105.991L10.4296 106.526L9.5846 105.991ZM11.6154 101.701L12.6152 101.72L11.6154 101.701ZM2 65C2 30.2061 30.2061 2 65 2V0C29.1015 0 0 29.1015 0 65H2ZM10.4414 96.5231C5.07316 87.2523 2 76.4865 2 65H0C0 76.8478 3.17076 87.9581 8.71067 97.5253L10.4414 96.5231ZM8.73961 105.457L6.9776 108.241L8.66757 109.31L10.4296 106.526L8.73961 105.457ZM13.8533 122.024L36.3252 123.851L36.4873 121.857L14.0153 120.031L13.8533 122.024ZM65 128C55.9478 128 47.3441 126.091 39.5671 122.656L38.7589 124.485C46.7856 128.031 55.6642 130 65 130V128ZM453 128H65V130H453V128ZM516 65C516 99.7939 487.794 128 453 128V130C488.898 130 518 100.899 518 65H516ZM453 2C487.794 2 516 30.2061 516 65H518C518 29.1015 488.898 0 453 0V2ZM65 2H453V0H65V2ZM36.3252 123.851C37.0607 123.911 37.3126 123.934 37.5376 123.992L38.0296 122.053C37.6038 121.945 37.1544 121.912 36.4873 121.857L36.3252 123.851ZM39.5671 122.656C38.9001 122.361 38.4564 122.161 38.0296 122.053L37.5376 123.992C37.7614 124.048 38.0204 124.159 38.7589 124.485L39.5671 122.656ZM6.9776 108.241C5.41413 110.711 4.17794 112.659 3.47585 114.245C2.76848 115.843 2.48681 117.326 3.19039 118.737L4.98008 117.844C4.67672 117.236 4.6823 116.46 5.30463 115.055C5.93223 113.637 7.06818 111.837 8.66757 109.31L6.9776 108.241ZM14.0153 120.031C11.0345 119.788 8.91337 119.613 7.40341 119.262C5.90616 118.914 5.28343 118.452 4.98008 117.844L3.19039 118.737C3.89396 120.147 5.24838 120.814 6.95024 121.21C8.6394 121.603 10.9394 121.787 13.8533 122.024L14.0153 120.031ZM8.71067 97.5253C9.40709 98.728 9.89514 99.5727 10.2126 100.255C10.5261 100.93 10.6223 101.343 10.6156 101.681L12.6152 101.72C12.6306 100.941 12.3942 100.204 12.0261 99.412C11.6619 98.6289 11.1193 97.6937 10.4414 96.5231L8.71067 97.5253ZM10.4296 106.526C11.0887 105.485 11.6222 104.644 11.9867 103.922C12.3592 103.184 12.6001 102.487 12.6152 101.72L10.6156 101.681C10.6087 102.031 10.5039 102.421 10.2013 103.021C9.89066 103.636 9.41969 104.382 8.73961 105.457L10.4296 106.526Z" fill="#020617"/>
</svg>
