<svg width="518" height="141" viewBox="0 0 518 141" fill="none" xmlns="http://www.w3.org/2000/svg">
<path d="M499.151 113.248L498.154 113.327L499.151 113.248ZM501.319 106.969L502.074 107.625L501.319 106.969ZM499.198 109.884L498.248 109.571L499.198 109.884ZM488.084 134.724L487.559 135.575L488.084 134.724ZM500.259 127.286L499.262 127.364L500.259 127.286ZM498.977 138.871L499.499 139.724L498.977 138.871ZM469.825 126.765L469.563 125.8L469.825 126.765ZM476.609 127.645L477.134 126.794L476.609 127.645ZM473.493 126.111L473.35 127.1L473.493 126.111ZM2 65C2 30.2061 30.2061 2 65 2V0C29.1015 0 0 29.1015 0 65H2ZM65 128C30.2061 128 2 99.7939 2 65H0C0 100.899 29.1015 130 65 130V128ZM453 128H65V130H453V128ZM469.563 125.8C464.286 127.234 458.733 128 453 128V130C458.912 130 464.641 129.21 470.087 127.73L469.563 125.8ZM488.609 133.873L477.134 126.794L476.084 128.496L487.559 135.575L488.609 133.873ZM498.154 113.327L499.262 127.364L501.256 127.207L500.148 113.169L498.154 113.327ZM516 65C516 80.8068 510.18 95.2518 500.565 106.313L502.074 107.625C511.994 96.2139 518 81.3071 518 65H516ZM453 2C487.794 2 516 30.2061 516 65H518C518 29.1015 488.898 0 453 0V2ZM65 2H453V0H65V2ZM500.148 113.169C500.004 111.347 499.974 110.724 500.148 110.197L498.248 109.571C497.918 110.572 498.024 111.683 498.154 113.327L500.148 113.169ZM500.565 106.313C499.95 107.019 499.456 107.586 499.088 108.074C498.714 108.569 498.423 109.04 498.248 109.571L500.148 110.197C500.225 109.963 500.371 109.693 500.684 109.28C501.001 108.86 501.442 108.352 502.074 107.625L500.565 106.313ZM487.559 135.575C490.463 137.366 492.737 138.772 494.549 139.553C496.356 140.331 498.019 140.628 499.499 139.724L498.456 138.018C497.84 138.394 496.989 138.426 495.34 137.716C493.696 137.008 491.571 135.7 488.609 133.873L487.559 135.575ZM499.262 127.364C499.536 130.833 499.73 133.321 499.61 135.107C499.489 136.899 499.072 137.641 498.456 138.018L499.499 139.724C500.979 138.82 501.473 137.205 501.605 135.242C501.738 133.273 501.525 130.608 501.256 127.207L499.262 127.364ZM470.087 127.73C471.05 127.469 471.722 127.287 472.257 127.181C472.783 127.077 473.099 127.064 473.35 127.1L473.636 125.121C473.066 125.038 472.497 125.095 471.869 125.219C471.249 125.342 470.498 125.546 469.563 125.8L470.087 127.73ZM477.134 126.794C475.683 125.899 474.712 125.277 473.636 125.121L473.35 127.1C473.916 127.182 474.475 127.504 476.084 128.496L477.134 126.794Z" fill="#020617"/>
</svg>
