<svg width="518" height="137" viewBox="0 0 518 137" fill="none" xmlns="http://www.w3.org/2000/svg">
<path d="M32.4401 124.54L32.9652 125.391L32.4401 124.54ZM40.3067 124.062L39.9206 124.985L40.3067 124.062ZM36.1203 122.789L36.0422 121.792L36.1203 122.789ZM10.2406 123.286L9.24371 123.207L10.2406 123.286ZM22.416 130.724L21.8909 129.873L22.416 130.724ZM11.5225 134.871L12.0439 134.018L11.5225 134.871ZM12.0685 100.987L12.8949 100.424L12.0685 100.987ZM12.0347 101.022L11.5019 101.868L12.0347 101.022ZM2 65C2 30.2061 30.2061 2 65 2V0C29.1015 0 0 29.1015 0 65H2ZM12.8949 100.424C6.01924 90.3303 2 78.136 2 65H0C0 78.5502 4.14735 91.1348 11.242 101.55L12.8949 100.424ZM10.9999 100.962L9.24371 123.207L11.2375 123.364L12.9937 101.12L10.9999 100.962ZM22.941 131.575L32.9652 125.391L31.9151 123.689L21.8909 129.873L22.941 131.575ZM65 128C56.3823 128 48.1711 126.27 40.6928 123.14L39.9206 124.985C47.6391 128.216 56.1125 130 65 130V128ZM453 128H65V130H453V128ZM516 65C516 99.7939 487.794 128 453 128V130C488.898 130 518 100.899 518 65H516ZM453 2C487.794 2 516 30.2061 516 65H518C518 29.1015 488.898 0 453 0V2ZM65 2H453V0H65V2ZM32.9652 125.391C33.885 124.824 34.5216 124.432 35.0473 124.167C35.5584 123.91 35.8947 123.81 36.1984 123.786L36.0422 121.792C35.3815 121.844 34.7829 122.061 34.1477 122.381C33.527 122.694 32.8057 123.14 31.9151 123.689L32.9652 125.391ZM40.6928 123.14C39.6339 122.697 38.7854 122.341 38.0809 122.11C37.3676 121.876 36.7134 121.74 36.0422 121.792L36.1984 123.786C36.4917 123.763 36.8567 123.814 37.4585 124.011C38.0691 124.211 38.8316 124.529 39.9206 124.985L40.6928 123.14ZM9.24371 123.207C8.9752 126.608 8.76216 129.273 8.89463 131.242C9.02674 133.205 9.5215 134.82 11.0012 135.724L12.0439 134.018C11.4281 133.641 11.0107 132.899 10.8901 131.107C10.7699 129.321 10.9636 126.833 11.2375 123.364L9.24371 123.207ZM21.8909 129.873C18.9293 131.7 16.8044 133.008 15.1599 133.716C13.5106 134.426 12.6597 134.394 12.0439 134.018L11.0012 135.724C12.4809 136.628 14.1441 136.331 15.9512 135.553C17.7633 134.772 20.0373 133.366 22.941 131.575L21.8909 129.873ZM12.5675 100.176C11.9154 99.765 11.0605 100.194 10.9999 100.962L12.9937 101.12C12.936 101.851 12.1224 102.259 11.5019 101.868L12.5675 100.176ZM11.242 101.55C10.6458 100.675 11.6743 99.6132 12.5675 100.176L11.5019 101.868C12.4406 102.459 13.5214 101.344 12.8949 100.424L11.242 101.55Z" fill="#020617"/>
</svg>
