<svg width="535" height="130" viewBox="0 0 535 130" fill="none" xmlns="http://www.w3.org/2000/svg">
<path d="M516.709 41.8968L516.891 40.9135L516.709 41.8968ZM510.605 37.0793L511.504 36.6425L510.605 37.0793ZM512.864 40.748L513.47 39.9525L512.864 40.748ZM526.521 56.652L527.207 57.3794L526.521 56.652ZM533.346 47.2031L532.387 47.4858L533.346 47.2031ZM516.875 69.0399L515.876 68.9778L516.875 69.0399ZM519.474 63.3L520.16 64.0274L519.474 63.3ZM517.364 65.6743L516.459 65.2499L517.364 65.6743ZM2 65C2 30.2061 30.2061 2 65 2V0C29.1015 0 0 29.1015 0 65H2ZM65 128C30.2061 128 2 99.7939 2 65H0C0 100.899 29.1015 130 65 130V128ZM453 128H65V130H453V128ZM515.876 68.9778C513.825 101.918 486.458 128 453 128V130C487.521 130 515.756 103.09 517.873 69.1021L515.876 68.9778ZM525.835 55.9246L518.788 62.5726L520.16 64.0274L527.207 57.3794L525.835 55.9246ZM516.527 42.8801L522.305 43.9496L522.669 41.983L516.891 40.9135L516.527 42.8801ZM453 2C477.939 2 499.495 16.4907 509.705 37.5161L511.504 36.6425C500.973 14.9544 478.734 0 453 0V2ZM65 2H453V0H65V2ZM516.891 40.9135C515.845 40.72 515.123 40.5854 514.564 40.4319C514.021 40.2827 513.709 40.1344 513.47 39.9525L512.258 41.5436C512.778 41.9391 513.359 42.1748 514.034 42.3604C514.694 42.5417 515.515 42.6928 516.527 42.8801L516.891 40.9135ZM509.705 37.5161C510.198 38.532 510.593 39.3469 510.963 39.9763C511.337 40.6137 511.731 41.1417 512.258 41.5436L513.47 39.9525C513.239 39.7768 513.003 39.5009 512.688 38.9635C512.367 38.4182 512.012 37.6874 511.504 36.6425L509.705 37.5161ZM527.207 57.3794C529.689 55.0383 531.635 53.2056 532.858 51.6573C534.078 50.1133 534.796 48.5836 534.305 46.9204L532.387 47.4858C532.591 48.178 532.402 49.0083 531.289 50.4176C530.179 51.8227 528.366 53.5367 525.835 55.9246L527.207 57.3794ZM522.305 43.9496C525.727 44.5829 528.18 45.0396 529.874 45.6181C531.574 46.1984 532.183 46.7936 532.387 47.4858L534.305 46.9204C533.815 45.2571 532.383 44.3611 530.521 43.7254C528.653 43.0879 526.024 42.6039 522.669 41.983L522.305 43.9496ZM517.873 69.1021C517.929 68.197 517.969 67.5659 518.032 67.0736C518.094 66.5896 518.171 66.3099 518.27 66.0988L516.459 65.2499C516.235 65.7281 516.122 66.2391 516.048 66.8195C515.975 67.3916 515.931 68.0987 515.876 68.9778L517.873 69.1021ZM518.788 62.5726C517.658 63.6386 516.882 64.3469 516.459 65.2499L518.27 66.0988C518.493 65.6231 518.908 65.2081 520.16 64.0274L518.788 62.5726Z" fill="#020617"/>
</svg>
