<svg width="20" height="20" viewBox="0 0 20 20" fill="none" xmlns="http://www.w3.org/2000/svg">
<path d="M10 20C15.5228 20 20 15.5228 20 10C20 4.47715 15.5228 0 10 0C4.47715 0 0 4.47715 0 10C0 15.5228 4.47715 20 10 20Z" fill="#F5F5F5"/>
<path d="M7.13322 10.5667C8.06655 11.2001 9.36655 10.9334 9.99989 10.0001C10.6332 9.06672 11.8999 8.80005 12.8666 9.43339C13.7666 10.0334 14.0332 11.2001 13.5332 12.1001C14.6332 10.2334 14.1332 7.80005 12.2666 6.56672C10.3666 5.30005 7.79989 5.80005 6.53322 7.70005C6.49989 7.76672 6.46655 7.83339 6.43322 7.86672C5.96655 8.83339 6.26655 9.96672 7.13322 10.5667Z" fill="#ED4C5C"/>
<path d="M12.8666 9.43324C11.9333 8.7999 10.6333 9.06657 9.99997 9.9999C9.36664 10.9332 8.09997 11.1999 7.1333 10.5666C6.2333 9.96657 5.96664 8.7999 6.46664 7.8999C5.3333 9.76657 5.86664 12.1999 7.7333 13.4332C9.6333 14.6999 12.2 14.1999 13.4666 12.2999C13.5 12.2332 13.5333 12.1666 13.5666 12.1332C14.0333 11.1666 13.7333 10.0332 12.8666 9.43324Z" fill="#428BC1"/>
<path d="M1.93316 7.10003L4.23316 3.6667L3.99983 3.50003L3.76649 3.3667L1.46649 6.80003L1.69982 6.93337L1.93316 7.10003ZM2.56649 7.53337L2.79982 7.6667L5.06649 4.23337L4.86649 4.10003L4.63316 3.93337L2.33316 7.3667L2.56649 7.53337ZM5.46649 4.50003L3.19983 7.93337L3.43316 8.10003L3.66649 8.23337L5.93316 4.80003L5.69983 4.6667L5.46649 4.50003ZM15.4998 13.5L15.7332 13.6667L16.7998 12.0667L16.5665 11.9L16.3332 11.7667L15.2665 13.3667L15.4998 13.5ZM18.0665 12.9L16.9998 14.5L17.2332 14.6667L17.4665 14.8L18.5332 13.2L18.2998 13.0667L18.0665 12.9ZM16.5998 14.2334L17.6665 12.6334L17.4332 12.4667L17.1998 12.3334L16.1332 13.9334L16.3665 14.0667L16.5998 14.2334ZM15.3665 13.7334L15.1332 13.6L14.0665 15.2L14.2998 15.3334L14.5332 15.5L15.5998 13.9L15.3665 13.7334ZM16.1998 14.3L15.9998 14.1667L14.9332 15.7667L15.1332 15.9L15.3665 16.0667L16.4332 14.4667L16.1998 14.3ZM16.8332 14.7334L15.7665 16.3334L15.9998 16.5L16.2332 16.6334L17.2998 15.0334L17.0665 14.8667L16.8332 14.7334ZM1.69982 13.0667L1.46649 13.2L3.76649 16.6334L3.99983 16.5L4.23316 16.3334L1.93316 12.9L1.69982 13.0667ZM3.79982 14.3L3.56649 14.4667L4.63316 16.0667L4.86649 15.9L5.06649 15.7667L3.99983 14.1667L3.79982 14.3ZM3.43316 11.9L3.19983 12.0667L5.46649 15.5L5.69983 15.3334L5.93316 15.2L3.66649 11.7667L3.43316 11.9ZM2.33316 12.6334L3.39982 14.2334L3.63316 14.0667L3.86649 13.9334L2.79982 12.3334L2.56649 12.4667L2.33316 12.6334ZM17.0665 5.13337L17.2998 4.9667L16.2332 3.3667L15.9998 3.50003L15.7665 3.6667L16.8332 5.2667L17.0665 5.13337ZM15.3665 6.2667L15.5998 6.10003L14.5332 4.50003L14.2998 4.6667L14.0665 4.80003L15.1332 6.40003L15.3665 6.2667ZM16.9998 5.50003L18.0665 7.10003L18.2998 6.93337L18.5332 6.80003L17.4665 5.20003L17.2332 5.33337L16.9998 5.50003ZM17.4332 7.53337L17.6665 7.3667L15.3665 3.93337L15.1332 4.10003L14.9332 4.23337L17.1998 7.6667L17.4332 7.53337ZM16.5665 8.10003L16.7998 7.93337L15.7332 6.33337L15.4998 6.50003L15.2665 6.63337L16.3332 8.23337L16.5665 8.10003Z" fill="#3E4347"/>
</svg>
