<svg width="20" height="20" viewBox="0 0 20 20" fill="none" xmlns="http://www.w3.org/2000/svg">
<path d="M15.3333 1.53333C13.7667 0.566667 11.9667 0 10 0V1.53333H15.3333Z" fill="#ED4C5C"/>
<path d="M10 3.06654H17.2C16.6333 2.49987 16 1.96654 15.3333 1.5332H10V3.06654Z" fill="white"/>
<path d="M10 4.60023H18.4333C18.0667 4.03356 17.6667 3.53356 17.2333 3.06689H10V4.60023Z" fill="#ED4C5C"/>
<path d="M10 6.13343H19.2333C19 5.6001 18.7333 5.06676 18.4333 4.6001H10V6.13343Z" fill="white"/>
<path d="M10 7.66663H19.7333C19.6 7.1333 19.4333 6.6333 19.2333 6.1333H10V7.66663Z" fill="#ED4C5C"/>
<path d="M10 9.23353H19.9667C19.9333 8.7002 19.8333 8.2002 19.7333 7.7002H10V9.23353Z" fill="white"/>
<path d="M19.9667 9.2334H10V10.0001H0C0 10.2667 -3.22859e-08 10.5001 0.0333333 10.7667H19.9667C20 10.5001 20 10.2667 20 10.0001C20 9.7334 20 9.46673 19.9667 9.2334Z" fill="#ED4C5C"/>
<path d="M0.26672 12.2999H19.7334C19.8667 11.7999 19.9334 11.2999 19.9667 10.7666H0.0333862C0.0667196 11.2666 0.133386 11.7999 0.26672 12.2999Z" fill="white"/>
<path d="M0.766541 13.8331H19.2332C19.4332 13.3331 19.5999 12.8331 19.7332 12.2998H0.266541C0.399874 12.8331 0.566541 13.3331 0.766541 13.8331Z" fill="#ED4C5C"/>
<path d="M1.5666 15.3668H18.4333C18.7333 14.8668 18.9999 14.3668 19.2333 13.8335H0.766602C0.999935 14.3668 1.2666 14.8668 1.5666 15.3668Z" fill="white"/>
<path d="M2.76659 16.9H17.2333C17.6666 16.4334 18.0999 15.9 18.4333 15.3667H1.56659C1.89992 15.9334 2.33326 16.4334 2.76659 16.9Z" fill="#ED4C5C"/>
<path d="M4.63321 18.4332H15.3665C16.0665 17.9999 16.6665 17.4666 17.2332 16.8999H2.76654C3.33321 17.4999 3.96654 17.9999 4.63321 18.4332Z" fill="white"/>
<path d="M10 19.9998C11.9667 19.9998 13.8 19.4331 15.3667 18.4331H4.63336C6.20003 19.4331 8.03336 19.9998 10 19.9998Z" fill="#ED4C5C"/>
<path d="M4.66667 1.53333C3.96667 1.96667 3.33333 2.5 2.76667 3.06667C2.3 3.53333 1.9 4.06667 1.56667 4.6C1.26667 5.1 0.966667 5.6 0.766667 6.13333C0.566667 6.63333 0.4 7.13333 0.266667 7.66667C0.133333 8.16667 0.0666666 8.66667 0.0333333 9.2C-3.22859e-08 9.46667 0 9.73334 0 10H10V0C8.03333 0 6.23333 0.566667 4.66667 1.53333Z" fill="#428BC1"/>
<path d="M7.66674 0.333496L7.8334 0.833496H8.3334L7.9334 1.16683L8.06674 1.66683L7.66674 1.36683L7.26674 1.66683L7.40007 1.16683L7.00007 0.833496H7.50007L7.66674 0.333496ZM9.00007 2.3335L9.16674 2.8335H9.66674L9.26674 3.16683L9.40007 3.66683L9.00007 3.36683L8.60007 3.66683L8.7334 3.16683L8.3334 2.8335H8.8334L9.00007 2.3335ZM6.3334 2.3335L6.50007 2.8335H7.00007L6.60007 3.16683L6.7334 3.66683L6.3334 3.36683L5.9334 3.66683L6.06674 3.16683L5.66674 2.8335H6.16674L6.3334 2.3335ZM7.66674 4.3335L7.8334 4.8335H8.3334L7.9334 5.16683L8.06674 5.66683L7.66674 5.36683L7.26674 5.66683L7.40007 5.16683L7.00007 4.8335H7.50007L7.66674 4.3335ZM5.00007 4.3335L5.16674 4.8335H5.66674L5.26674 5.16683L5.40007 5.66683L5.00007 5.36683L4.60007 5.66683L4.7334 5.16683L4.3334 4.8335H4.8334L5.00007 4.3335ZM2.3334 4.3335L2.50007 4.8335H3.00007L2.60007 5.16683L2.7334 5.66683L2.3334 5.36683L1.9334 5.66683L2.06674 5.16683L1.66674 4.8335H2.16674L2.3334 4.3335ZM9.00007 6.3335L9.16674 6.8335H9.66674L9.26674 7.16683L9.40007 7.66683L9.00007 7.36683L8.60007 7.66683L8.7334 7.16683L8.3334 6.8335H8.8334L9.00007 6.3335ZM6.3334 6.3335L6.50007 6.8335H7.00007L6.60007 7.16683L6.7334 7.66683L6.3334 7.36683L5.9334 7.66683L6.06674 7.16683L5.66674 6.8335H6.16674L6.3334 6.3335ZM3.66674 6.3335L3.8334 6.8335H4.3334L3.9334 7.16683L4.06674 7.66683L3.66674 7.36683L3.26674 7.66683L3.40007 7.16683L3.00007 6.8335H3.50007L3.66674 6.3335ZM7.66674 8.3335L7.8334 8.8335H8.3334L7.9334 9.16683L8.06674 9.66683L7.66674 9.36683L7.26674 9.66683L7.40007 9.16683L7.00007 8.8335H7.50007L7.66674 8.3335ZM5.00007 8.3335L5.16674 8.8335H5.66674L5.26674 9.16683L5.40007 9.66683L5.00007 9.36683L4.60007 9.66683L4.7334 9.16683L4.3334 8.8335H4.8334L5.00007 8.3335ZM2.3334 8.3335L2.50007 8.8335H3.00007L2.60007 9.16683L2.7334 9.66683L2.3334 9.36683L1.9334 9.66683L2.06674 9.16683L1.66674 8.8335H2.16674L2.3334 8.3335ZM3.26674 3.66683L3.66674 3.36683L4.06674 3.66683L3.90007 3.16683L4.30007 2.8335H3.80007L3.66674 2.3335L3.50007 2.8335H3.0334L3.4334 3.1335L3.26674 3.66683ZM0.600069 7.66683L1.00007 7.36683L1.40007 7.66683L1.2334 7.16683L1.6334 6.8335H1.16674L1.00007 6.3335L0.833403 6.8335H0.500069C0.500069 6.86683 0.466736 6.90016 0.466736 6.9335L0.733402 7.1335L0.600069 7.66683Z" fill="white"/>
</svg>
