<svg width="20" height="20" viewBox="0 0 20 20" fill="none" xmlns="http://www.w3.org/2000/svg">
<path d="M10 20C15.5228 20 20 15.5228 20 10C20 4.47715 15.5228 0 10 0C4.47715 0 0 4.47715 0 10C0 15.5228 4.47715 20 10 20Z" fill="#ED4C5C"/>
<path d="M6.66652 8.80016L9.33319 10.6668L8.33319 7.60016L10.9999 5.66683H7.69986L6.66652 2.66683L5.66652 5.66683H2.33319L4.99986 7.60016L3.99986 10.6668L6.66652 8.80016ZM11.0999 11.1002L10.3332 11.2668L11.0665 11.5668V12.3335L11.5665 11.7668L12.2999 12.0335L11.8665 11.4002L12.3332 10.8002L11.5665 10.9668L11.0999 10.3335V11.1002ZM12.2332 8.8335L11.6665 9.3335L12.4332 9.26683L12.7665 10.0002L12.8999 9.2335L13.6665 9.16683L12.9999 8.76683L13.1665 8.00016L12.5999 8.50016L11.9332 8.10016L12.2332 8.8335ZM12.4332 6.2335L12.6665 7.00016L12.8999 6.26683H13.6665L13.0665 5.80016L13.2999 5.0335L12.6665 5.50016L12.0665 5.00016L12.2999 5.76683L11.6665 6.20016L12.4332 6.2335ZM11.0999 3.56683V4.3335L11.5665 3.70016L12.3332 3.86683L11.8665 3.26683L12.2999 2.6335L11.5665 2.9335L11.0665 2.3335V3.10016L10.3332 3.40016L11.0999 3.56683Z" fill="#FFE62E"/>
</svg>
