<svg width="21" height="21" viewBox="0 0 21 21" fill="none" xmlns="http://www.w3.org/2000/svg">
<path fill-rule="evenodd" clip-rule="evenodd" d="M2.6208 0.549566C2.24075 0.148843 1.62456 0.148843 1.24451 0.549566C0.86446 0.95029 0.86446 1.59999 1.24451 2.00071L9.1235 10.3083L1.35487 18.4994C0.974823 18.9002 0.974822 19.5499 1.35487 19.9506C1.73493 20.3513 2.35111 20.3513 2.73116 19.9506L10.4998 11.7594L18.2684 19.9506C18.6485 20.3513 19.2646 20.3513 19.6447 19.9506C20.0247 19.5499 20.0247 18.9002 19.6447 18.4994L11.8761 10.3083L19.7551 2.00071C20.1351 1.59999 20.1351 0.95029 19.7551 0.549566C19.375 0.148843 18.7588 0.148843 18.3788 0.549566L10.4998 8.85711L2.6208 0.549566Z" fill="black"/>
</svg>
