<svg width="17" height="17" viewBox="0 0 17 17" fill="none" xmlns="http://www.w3.org/2000/svg">
<path d="M12.8216 12.812C12.6136 12.172 12.0136 11.7 11.3016 11.7H10.5016V9.3C10.5016 9.08783 10.4173 8.88434 10.2672 8.73431C10.1172 8.58429 9.91374 8.5 9.70156 8.5H4.90156V6.9H6.50156C6.71374 6.9 6.91722 6.81571 7.06725 6.66569C7.21728 6.51566 7.30156 6.31217 7.30156 6.1V4.5H8.90156C9.32591 4.5 9.73287 4.33143 10.0329 4.03137C10.333 3.73131 10.5016 3.32435 10.5016 2.9V2.572C11.4587 2.95789 12.3082 3.56998 12.9771 4.35587C13.646 5.14176 14.1146 6.07804 14.3426 7.08457C14.5707 8.0911 14.5514 9.1379 14.2865 10.1354C14.0216 11.1328 13.519 12.0512 12.8216 12.812ZM7.30156 14.844C4.14156 14.452 1.70156 11.764 1.70156 8.5C1.70156 8.004 1.76556 7.524 1.86956 7.068L5.70156 10.9V11.7C5.70156 12.1243 5.87013 12.5313 6.17019 12.8314C6.47025 13.1314 6.87722 13.3 7.30156 13.3M8.10156 0.5C7.05099 0.5 6.0107 0.706926 5.04009 1.10896C4.06949 1.511 3.18758 2.10028 2.44471 2.84315C0.944417 4.34344 0.101563 6.37827 0.101562 8.5C0.101563 10.6217 0.944417 12.6566 2.44471 14.1569C3.18758 14.8997 4.06949 15.489 5.04009 15.891C6.0107 16.2931 7.05099 16.5 8.10156 16.5C10.2233 16.5 12.2581 15.6571 13.7584 14.1569C15.2587 12.6566 16.1016 10.6217 16.1016 8.5C16.1016 7.44943 15.8946 6.40914 15.4926 5.43853C15.0906 4.46793 14.5013 3.58601 13.7584 2.84315C13.0155 2.10028 12.1336 1.511 11.163 1.10896C10.1924 0.706926 9.15214 0.5 8.10156 0.5Z" fill="black"/>
</svg>
